<?xml version="1.0" encoding="utf-8"?>
<!-- Generator: Adobe Illustrator 26.0.3, SVG Export Plug-In . SVG Version: 6.00 Build 0)  -->
<svg version="1.1" id="Layer_1" xmlns="http://www.w3.org/2000/svg" xmlns:xlink="http://www.w3.org/1999/xlink" x="0px" y="0px"
	 viewBox="0 0 370.1 292.8" style="enable-background:new 0 0 370.1 292.8;" xml:space="preserve">
<style type="text/css">
	.st0{clip-path:url(#SVGID_00000048497090464511487140000009232438544511194528_);}
	.st1{fill:#37A7E5;fill-opacity:0.5;stroke:#EC1C24;stroke-miterlimit:10;}
	.st2{fill:#323232;fill-opacity:0.51;stroke:#EC1C24;stroke-miterlimit:10;}
	.st3{fill:#FEC4E4;fill-opacity:0.5;stroke:#EC1C24;stroke-miterlimit:10;}
	.st4{fill:#BEB532;fill-opacity:0.5;stroke:#EC1C24;stroke-miterlimit:10;}
	.st5{opacity:0.6;fill:#FFF9AD;fill-opacity:0.6;stroke:#EC1C24;stroke-miterlimit:10;enable-background:new    ;}
	.st6{fill:#FDAE70;fill-opacity:0.4;stroke:#EC1C24;stroke-miterlimit:10;}
	.st7{fill:#A34902;fill-opacity:0.4;stroke:#EC1C24;stroke-miterlimit:10;}
	.st8{fill:#5C581D;fill-opacity:0.59;stroke:#EC1C24;stroke-miterlimit:10;}
	.st9{opacity:0.6;fill:#CBCBCB;stroke:#EC1C24;stroke-width:0.75;stroke-miterlimit:10;enable-background:new    ;}
	
		.st10{opacity:0.6;fill:#737373;fill-opacity:0.5;stroke:#EC1C24;stroke-width:0.75;stroke-miterlimit:10;enable-background:new    ;}
	.st11{opacity:0.6;fill:#784A64;stroke:#EC1C24;stroke-width:0.75;stroke-miterlimit:10;enable-background:new    ;}
	.st12{opacity:0.6;fill:#F093C7;stroke:#EC1C24;stroke-width:0.75;stroke-miterlimit:10;enable-background:new    ;}
	.st13{opacity:0.6;fill:#BE719C;stroke:#EC1C24;stroke-width:0.75;stroke-miterlimit:10;enable-background:new    ;}
	.st14{fill:#00FFBA;fill-opacity:0.2;stroke:#EC1C24;stroke-miterlimit:10;}
	.st15{font-family:'ArialMT';}
	.st16{font-size:13px;}
	.st17{font-size:11px;}
	.st18{fill:none;stroke:#000202;stroke-width:0.75;stroke-miterlimit:10;}
	.st19{opacity:0.6;fill:#B9F9E8;stroke:#EC1C24;stroke-miterlimit:10;enable-background:new    ;}
	.st20{opacity:0.6;fill:#00FFBA;fill-opacity:0.6;stroke:#EC1C24;stroke-miterlimit:10;enable-background:new    ;}
	.st21{opacity:0.6;fill:#009E73;fill-opacity:0.6;stroke:#EC1C24;stroke-miterlimit:10;enable-background:new    ;}
	.st22{opacity:0.6;fill:#01513B;fill-opacity:0.6;stroke:#EC1C24;stroke-miterlimit:10;enable-background:new    ;}
</style>
<g id="brain_art">
	<g id="_8.MouseBrain_whole.psd">
		<g>
			<defs>
				<rect id="SVGID_1_" width="370.1" height="292.8"/>
			</defs>
			<clipPath id="SVGID_00000162321321206158026030000006682690310091604361_">
				<use xlink:href="#SVGID_1_"  style="overflow:visible;"/>
			</clipPath>
			<g style="clip-path:url(#SVGID_00000162321321206158026030000006682690310091604361_);">
				
					<image style="overflow:visible;enable-background:new    ;" width="1542" height="1220" xlink:href="299B9617.png"  transform="matrix(0.24 0 0 0.24 0 0)">
				</image>
			</g>
		</g>
	</g>
</g>
<g id="cortex">
	<path class="st1" d="M186.6,68.9c0,0-2.4,7.6,6.4,6.1c0,0,8.7-5,27.2-7c0,0,29.8-4.3,61.8,24.8c0,0,17.8,15.5,24.5,36.2
		c0,0,4.8,14,5.5,19.5c0,0,2.2,10.2,4.5,15.5c0,0,1.8,3.7,2.7,14.8c0,0-0.4,10.9,0.3,16.9c0,0,15.9,11.9,28.6,11.9
		c0,0,6.1-5.9,6.3-7.2c0,0,24.8-52.5-6.1-95.2c0,0-7.8-31.3-38-48.2c0,0-25.3-20.7-63.5-24.5c0,0-10.5,0-15.8-1
		c0,0-27.6-6-42.5,13.1c-1,1.2-1.9,4.9-1.5,11.2c0,0-0.4,2.4-0.6,3.6C186.5,59.6,186.1,66,186.6,68.9z"/>
</g>
<g id="internal_capsule">
	<path id="internalCapsule" class="st2" d="M283.6,103.3c1.7,1.4,3.2,2.9,4.7,4.5c2.4,2.7,3.6,4.1,4.1,6.1c0.4,1.6,0.1,3-0.5,5.5
		c-0.6,2.7-1,2.7-1.7,5.7c-0.6,2.2-0.8,4.4-0.8,6.7c0,1.3,0.1,2.6,0.4,3.9c0.1,0.7,0.5,2.7,2.9,8.1c1,2.3,1.4,3,2.2,5.1
		c0.8,1.7,1.3,3.5,1.4,5.4c0,1.1-0.2,2.2-0.5,3.2c-0.7,3-1.6,3.7-3.2,7.7c-0.4,1.1-1.1,2.8-1.7,4.9c-0.3,1.1-0.5,1.7-1.4,5.6
		c-1,4.3-1.5,6.4-1.5,6.6c-1.1,4.3-1.5,4.5-1.4,6.1c0.1,2.1,0.6,2.7,0.4,4.6c-0.2,1.5-0.8,2.9-1.6,4.1c-2.5,3.8-6.4,6-8.6,7.7
		c-5.7,4.3-4.2,7.6-13.6,18.7c-1.4,1.6-3.3,3.8-5.9,3.9c-2.1,0.1-3.7-1.2-5.6-2.7s-4.5-3.4-5.6-6.2c-3.2-7.7,5.7-19.1,7.7-21.7
		c1.7-2.2,4-4.7,5.4-8.8c0.3-1.6,0.9-3.2,1.6-4.7c0.9-1.7,1.5-3.6,2.3-5.3c0.7-1.8,1.6-3.5,2.5-5.2c0.4-0.8,0.9-1.6,1.5-2.3
		c1.4-1.5,2.2-1.3,3.9-2.7c1.2-1,2.2-2.2,2.9-3.5c0.7-1.3,1.1-2.7,1.2-4.2c0.1-1.5,0.1-3.1-0.2-4.6c-0.1-1.7-0.5-3.4-1-5
		c-0.6-1.6-1-1.5-3.4-5.3c-1.2-1.9-1.5-2.5-2-3.1c-0.2-0.2-0.6-0.8-0.6-0.8c-0.2-0.7-0.1-1.5,0.1-2.2c0.2-0.6,0.5-1.1,0.9-1.5
		c0.5-0.5,1-1,1.5-1.5l0,0c0.5-0.5,1.1-0.9,1.8-1.2c0.7-0.1,1.5,0.1,2.1,0.6c1.4,0.9,1.3,2.2,3.2,5.3c0.2,0.3,0.1,0.2,0.6,1
		c2.2,3.2,5,8.6,4.7,7.8c-0.5-1.3,1.7,9.6,2.6,9.8c0.3,0.1,1.7,1.4,3,1s2.2-2.2,2.5-2.8c0.6-1.6-2-5.7-2.5-7
		c-0.3-0.8-3.4-7.2-3.6-8.3c-0.5-2.7-1.7-3.8-2.7-5.9c-0.6-2.5-1-4.9-1.4-7.4c-0.6-3.9-0.8-4.8-0.5-6.2c0.3-1.8,0.7-1.8,1.1-4
		c0.4-1.9,0.5-3.9,0.1-5.9c-0.5-2.4-1.3-2.5-1.7-5c-0.2-1.5-0.5-3.6,0.7-4.6S283.3,103.2,283.6,103.3z"/>
</g>
<g id="thalamus">
	<path id="thalamusBackground" class="st3" d="M189,127.3c-1.4-3.3-0.9-7.2,1.3-10c1.5-4,2.5-1.5,2.5-1.5c1.7,1.5,3.9,2.3,6.2,2.2
		c2.2,0.4,4.6,0.2,6.7-0.7c9.2-2.7,29.2,2,29.2,2c3.2,1.3,6.5,2.2,9.8,2.8c7.8,1.9,10.5,6,10.5,6c2.8,2.7,5.3,5.3,5.3,5.3
		c14.5,15.8,11.2,22.8,11.2,22.8c0.7,6.8-11,12.3-11,12.3c-4.2,2-9,7.3-9,7.3c-4.2,6.7-5.8,4.5-5.8,4.5c1-2.7-0.3-2-0.3-2
		c-5.5,9.8-27.5,10-27.5,10c-1-1.3-7-0.2-7-0.2c1.1-0.1,2.1,0.5,2.5,1.5c-0.8,3,16.8,0.8,16.8,0.8c-17.5,10.8-24.5,5.8-24.5,5.8
		c-5.8-1.8-10.7,3.7-10.7,3.7c-10.8,5.8-9.8-1.3-9.8-1.3c-0.8-1.7,0-44.2,0-48s1.7-5.2,1.7-5.2c1.5-1,1.5-1.5,1.5-1.5
		c-1.8-6.7,1.2-10.2,1.2-10.2C191,131.1,189,127.3,189,127.3z"/>
</g>
<g id="hypothalamus">
	<path id="HypothalamusBackground" class="st4" d="M251,234.2c0,0-3.3,17.8-14.7,23.5c-3.6,1.9-7,4.2-10.1,7c0,0-8.5,9.6-12.8,13.7
		c0,0-8.8,9.3-23.8,4.3c0,0-7.2-1.5-3.5-8.2c0,0,2.5-2.5,1.3-12.4c0,0-1,0.4-0.8-12.1c0,0,0-4.7,2.7-13.8c0,0,1.7-5.2,1.2-8.7
		c0.1-1.7-0.7-3.4-2-4.5c0,0-1.5-0.2-2.8-6.8c0,0-1.5-6,0-9.8c0,0,0.3-1.7,3.7-1.3c0,0,3.7,0.8,7.5-2.7c0,0,3.5-3.2,5.3-3.3
		c2.2,0.1,4.3,0.9,6.1,2.2c0,0,3.2,1.6,10.1-1.8c-0.7,0,13.1-5.1,19.6-8.8c0,0,9.2-5.4,14-11.1c0,0,5.7-7.3,9.4-8.6
		s-4.2,7.3-4.9,15.3c0,0-0.8,4.2-5.8,10.5c0,0-4.7,3.7-6.8,13c0,0-2.8,9-0.7,13.7c1,1.9,2.6,3.3,4.5,4.2
		C247.7,227.7,252.4,229.4,251,234.2z"/>
	<path id="VentromedialHypothalamicNucleus" class="st5" d="M211.8,257.8c0,0-2.4,7.8-10.5,6.1c-0.7,0.5-12.8-12.2-7.5-19.5
		c0,0,2.8-3.6,5.5-0.7c0,0,2.9,5.3,6.3,6.8C209.4,252.1,212.1,254.1,211.8,257.8z"/>
	<path id="choroidPlexus" class="st6" d="M187.9,108.3c1.6,4.3,2.6,4.2,2.7,6.4c0.1,3.8-3,4.8-3.4,9.1c-0.3,2.9,1,3.4,1.7,7.1
		c1.2,6.9-1.7,13.9-3,13.8c-1.1-0.1-1.5-5.5-1.5-6.9c0-2.5,0.8-2.3,1-4.9c0.1-2.9-0.5-5.8-1.7-8.4c-1.4-3.4-2.6-3.9-2.7-6.4
		c-0.2-2.9,1.4-3.3,1.7-7.4c0.2-2.8-0.5-2.8,0-5.9c0.4-2.3,1.5-5.2,2.5-5.2S185.9,103.1,187.9,108.3z"/>
</g>
<g id="caudoputamen">
	<path id="caudoputamen-2" class="st7" d="M303.8,146.2c1,5,5.5,18.5,5.5,18.5C317.5,192.2,293,196,293,196
		c-9.8-0.5-6.8-11.2-6.8-11.2c3.5-18.5,7-24.5,7-24.5c2.5-5.3,2-11.6-1.2-16.5c-8.2-21.2,0.2-23.5,0.2-23.5
		C300.8,119.2,303.8,146.2,303.8,146.2z"/>
</g>
<g id="amygdala">
	<path id="amygdala-2" class="st8" d="M317.4,177.1c1.5,12.2-0.7,15.8-0.7,15.8c-1,2.8-1.6,5.6-2,8.5c0,7.8-2.2,18-2.2,18
		c-5,22.2-18,20.7-18,20.7c-4.4-0.2-1.8-7.5-4.7-11.7c-6.6-11.4,5.1-27.2,5.1-27.2c2.2-3,10.1-10.6,10.1-10.6c6.2-4.8,7-14.3,7-14.3
		c0.5-9.3,2.5-8.7,2.5-8.7C316.2,165.8,317.4,177.1,317.4,177.1z"/>
</g>
<g id="MH_LH_PVT_MD_VPM">
	<path id="medialHabenula" class="st9" d="M200.8,119.9c0,0-0.8,12.2-7,12.2c-2.9-0.4-5-2.9-5.1-5.8c0,0-0.8-2.5,1.4-6.3
		c0.5-0.8,1-1.7,1.4-2.6c0,0,0.2-0.9,1.4,0.2C193,117.6,197.2,121,200.8,119.9z"/>
	<path id="lateralHabenula" class="st10" d="M200.8,119.9c1.8,0,3.5-0.2,5.2-0.8c0,0,1.4-0.8,2.2,1.7c0.7,2.1,5.9,16.2-0.1,20.2
		c0,0-5.4,2.4-8.6-0.7c0,0-6.3-6.6-3.8-8.8C195.8,131.6,200.4,129.2,200.8,119.9z"/>
	<path id="paraventricularNucleus" class="st11" d="M195.7,134.9c0.3,0.7,0.5,1.5,0.5,2.2c0.1,2.4-0.3,4.8-1.2,7v0.1
		c-0.5,1.4-1.2,2.7-1.9,3.9c-1.1,1.9-2.5,3.9-3.6,3.8c0,0-2.7,0.2-1.8-4.4c0,0,1.3-1.1,1.2-2.2c-0.6-1.8-0.7-3.6-0.4-5.4
		c0.2-1.5,0.9-3,1.8-4.2c0,0,1-2.2-0.5-6.2c0,0,3.2,4,5.8,2.4C195.4,133,195.5,133.9,195.7,134.9z"/>
	<path id="VentralPosteromedialNucleus" class="st12" d="M255.2,152c0.8,2.6-1,5-2.4,7.1c-2.3,3.2-3.4,2.9-8.3,7.5
		c-2.9,2.8-3.5,3.9-5.9,5c-1.5,0.7-4.1,2-6.4,0.8c-1.4-0.7-2.4-2.1-2.6-3.6c-0.1-0.8-0.1-1.9,2.9-6.7c1.3-2.2,2.7-4.3,4.3-6.3
		c1.3-1.7,2.8-3.3,4.4-4.8c1.8-1.6,2.7-2.4,4.2-2.9c2.1-0.6,4.4-0.5,6.4,0.3C253.4,149.1,254.6,150.4,255.2,152z"/>
	<path id="MediodorsalNucleus" class="st13" d="M210.5,128.9c0.5,0.1,6.7,6,7.7,7c2.4,2.3,4.5,4.6,4,9.9c-0.4,3.9-0.8,4.8-1.3,6.1
		c-1,2.4-1.2,4.2-5.5,9.4c-1.9,2.4-6.2,3.9-9,4.6c-1.6,0.4-8.1,1.3-12.1,0.3c-0.9-0.2-6.5-3.9-6.5-6c0-0.5-0.2-3.3-0.3-4.5
		c-0.1-1.9,0.7-1.9,1.4-2.7c0.6-0.5,1.1-1.1,1.6-1.7c0.1-0.5,0.9-0.4,1-0.8c0.2-0.4,0.4-0.8,0.7-1.2c0.5-0.8,0.6-1,1.2-2.2
		s1.3-2.2,1.8-3c1.7-3.1,0.4-6.4,1.3-6.7c0.3-0.1,0.8,0.4,1.8,1.3c1.3,1.3,1.4,1.8,2.2,2.4c0.9,0.6,2.1,0.9,3.2,0.9
		c1.5,0.2,3.1-0.2,4.4-1.1c0.7-0.5,1.3-1.1,1.8-1.8c0.4-1.1,0.7-2.3,0.9-3.5C211,134.2,210.5,129.2,210.5,128.9z"/>
</g>
<g id="labels_leaders">
	<g>
		<path id="hippocampus" class="st14" d="M187.2,95.2c5.1-0.8,10.1-2.5,14.7-5c0,0,19.5-15.4,31.2-15.1c0,0,17.1-1.1,26.3,12.7
			c0,0,6.8,10.8,5,22.8c0,0-3.7,20.5-22,12.3c0,0-14.7-5.3-36.5-4c-5.4,0.3-9.9,1-12.3-2C188.7,110.8,186.4,103.1,187.2,95.2z"/>
		<text transform="matrix(1 0 0 1 72.75 69.73)" class="st15 st16">H</text>
		<text transform="matrix(1 0 0 1 81.36 69.73)" class="st15 st16">ippocampus</text>
	</g>
	<text transform="matrix(1 0 0 1 130.67 56.83)" class="st15 st16">C</text>
	<text transform="matrix(1 0 0 1 138.07 56.83)" class="st15 st16">o</text>
	<text transform="matrix(1 0 0 1 145.2 56.83)" class="st15 st16">r</text>
	<text transform="matrix(1 0 0 1 149.77 56.83)" class="st15 st16">t</text>
	<text transform="matrix(1 0 0 1 153.99 56.83)" class="st15 st16">e</text>
	<text transform="matrix(1 0 0 1 160.47 56.83)" class="st15 st16">x</text>
	<text transform="matrix(1 0 0 1 17.35 129.5)" class="st15 st17">M</text>
	<text transform="matrix(1 0 0 1 26.26 129.5)" class="st15 st17">edial habenula</text>
	<text transform="matrix(1 0 0 1 48.56 139.97)" class="st15 st17">L</text>
	<text transform="matrix(1 0 0 1 53.75 139.97)" class="st15 st17">a</text>
	<text transform="matrix(1 0 0 1 59.01 139.97)" class="st15 st17">t</text>
	<text transform="matrix(1 0 0 1 62.58 139.97)" class="st15 st17">e</text>
	<text transform="matrix(1 0 0 1 68.1 139.97)" class="st15 st17">r</text>
	<text transform="matrix(1 0 0 1 71.64 139.97)" class="st15 st17">al habenula</text>
	<text transform="matrix(1 0 0 1 13.65 154.56)" class="st15 st17">P</text>
	<text transform="matrix(1 0 0 1 19.22 154.56)" class="st15 st17">a</text>
	<text transform="matrix(1 0 0 1 24.52 154.56)" class="st15 st17">r</text>
	<text transform="matrix(1 0 0 1 28.06 154.56)" class="st15 st17">a</text>
	<text transform="matrix(1 0 0 1 33.27 154.56)" class="st15 st17">v</text>
	<text transform="matrix(1 0 0 1 38.46 154.56)" class="st15 st17">e</text>
	<text transform="matrix(1 0 0 1 43.97 154.56)" class="st15 st17">n</text>
	<text transform="matrix(1 0 0 1 50.03 154.56)" class="st15 st17">t</text>
	<text transform="matrix(1 0 0 1 53.67 154.56)" class="st15 st17">r</text>
	<text transform="matrix(1 0 0 1 57.31 154.56)" class="st15 st17">icular nucleus</text>
	<text transform="matrix(1 0 0 1 187.81 181.23)" class="st15 st16">T</text>
	<text transform="matrix(1 0 0 1 194.18 181.23)" class="st15 st16">halamus</text>
	<text transform="matrix(1 0 0 1 88.4 219)" class="st15 st16">C</text>
	<text transform="matrix(1 0 0 1 95.85 219)" class="st15 st16">audoputamen</text>
	<text transform="matrix(1 0 0 1 88.17 233.83)" class="st15 st16">H</text>
	<text transform="matrix(1 0 0 1 96.76 233.83)" class="st15 st16">ypothalamus</text>
	<text transform="matrix(1 0 0 1 264.62 255.9)" class="st15 st16">A</text>
	<text transform="matrix(1 0 0 1 272.54 255.9)" class="st15 st16">m</text>
	<text transform="matrix(1 0 0 1 283.21 255.9)" class="st15 st16">y</text>
	<text transform="matrix(1 0 0 1 289.2 255.9)" class="st15 st16">gdala</text>
	<text transform="matrix(1 0 0 1 50.16 95.1)" class="st15 st16">Cho</text>
	<text transform="matrix(1 0 0 1 72.05 95.1)" class="st15 st16">r</text>
	<text transform="matrix(1 0 0 1 76.17 95.1)" class="st15 st16">oid pl</text>
	<text transform="matrix(1 0 0 1 106.9 95.1)" class="st15 st16">e</text>
	<text transform="matrix(1 0 0 1 113.38 95.1)" class="st15 st16">xus</text>
	<line class="st18" x1="169.5" y1="54" x2="193.9" y2="54"/>
	<line class="st18" x1="153.6" y1="70.2" x2="192" y2="96.7"/>
	<line class="st18" x1="96.5" y1="127.6" x2="191.4" y2="125.4"/>
	<line class="st18" x1="133.7" y1="136.8" x2="200.6" y2="135.3"/>
	<line class="st18" x1="123.9" y1="152.8" x2="191.4" y2="140"/>
	<line class="st18" x1="175.5" y1="218.1" x2="294.7" y2="174"/>
	<line class="st18" x1="296.1" y1="245.7" x2="296.9" y2="221.6"/>
	<line class="st18" x1="170" y1="231" x2="197.8" y2="232.7"/>
	<line class="st18" x1="133.7" y1="95.1" x2="182.5" y2="112.5"/>
	<line class="st18" x1="165.6" y1="198.5" x2="268.9" y2="178.1"/>
	<text transform="matrix(1 0 0 1 23.95 180.14)" class="st15 st17">V</text>
	<text transform="matrix(1 0 0 1 29.72 180.14)" class="st15 st17">e</text>
	<text transform="matrix(1 0 0 1 35.24 180.14)" class="st15 st17">n</text>
	<text transform="matrix(1 0 0 1 41.3 180.14)" class="st15 st17">t</text>
	<text transform="matrix(1 0 0 1 44.94 180.14)" class="st15 st17">r</text>
	<text transform="matrix(1 0 0 1 48.48 180.14)" class="st15 st17">al pos</text>
	<text transform="matrix(1 0 0 1 75.36 180.14)" class="st15 st17">t</text>
	<text transform="matrix(1 0 0 1 78.94 180.14)" class="st15 st17">e</text>
	<text transform="matrix(1 0 0 1 84.45 180.14)" class="st15 st17">r</text>
	<text transform="matrix(1 0 0 1 87.94 180.14)" class="st15 st17">omedial nucleus</text>
	<line class="st18" x1="177.8" y1="245.1" x2="195.9" y2="253.3"/>
	<text transform="matrix(1 0 0 1 12.24 244.01)" class="st15 st17">V</text>
	<text transform="matrix(1 0 0 1 18.01 244.01)" class="st15 st17">e</text>
	<text transform="matrix(1 0 0 1 23.53 244.01)" class="st15 st17">n</text>
	<text transform="matrix(1 0 0 1 29.59 244.01)" class="st15 st17">t</text>
	<text transform="matrix(1 0 0 1 33.23 244.01)" class="st15 st17">r</text>
	<text transform="matrix(1 0 0 1 36.72 244.01)" class="st15 st17">omedial </text>
	<text transform="matrix(1 0 0 1 76.45 244.01)" class="st15 st17">h</text>
	<text transform="matrix(1 0 0 1 82.41 244.01)" class="st15 st17">ypothalamic nucleus</text>
	<text transform="matrix(1 0 0 1 85.32 83.48)" class="st15 st17">D</text>
	<text transform="matrix(1 0 0 1 92.69 83.48)" class="st15 st17">e</text>
	<text transform="matrix(1 0 0 1 98.2 83.48)" class="st15 st17">n</text>
	<text transform="matrix(1 0 0 1 104.26 83.48)" class="st15 st17">t</text>
	<text transform="matrix(1 0 0 1 107.9 83.48)" class="st15 st17">a</text>
	<text transform="matrix(1 0 0 1 113.16 83.48)" class="st15 st17">t</text>
	<text transform="matrix(1 0 0 1 116.74 83.48)" class="st15 st17">e gyrus</text>
	<line class="st18" x1="155.2" y1="85.9" x2="191.4" y2="105.2"/>
	<g id="Hippocampus_CA1">
		<path class="st19" d="M235,75.2c0,0,11.1,1.6,10.2,2.3c-1.1,1-12.2,20.1-18.6,23.8c-1.3,0.9-2.5,1.8-3.6,2.9
			c-0.3,0.2-0.6,0.4-1,0.4c-2,0.1-2.8-1.3-6.1-1.7c-2.4-0.3-8.3,0.3-10.2-0.2c-5.5-1.2-5.7-10-6.6-10.4
			C198.6,93.1,222.8,74.4,235,75.2z"/>
		<text transform="matrix(1 0 0 1 212.14 92.72)" class="st15 st17">C</text>
		<text transform="matrix(1 0 0 1 218.56 92.72)" class="st15 st17">A1</text>
	</g>
	<g id="Hippocampus_CA2">
		<path class="st20" d="M245.5,77.2c2.5,1.1,5,2.4,7.3,4c1.5,0.9,2.8,1.9,4,3.1c1.4,1.6,2.6,2.9,2.3,3.1c-1.1,1-13,20.8-20.4,20.8
			c-4.6,0.3-9.2-0.5-13.4-2.2c-1.1-0.4-2.5-0.5-2.5-1.1c0-1.2,3.1-3.1,5-4.4s3.1-2.3,2.9-2.4c-0.4,0.6,2.6-3,9.2-12.2
			C242.5,82.1,242.6,80.4,245.5,77.2z"/>
		<text transform="matrix(1 0 0 1 233.87 98.04)" class="st15 st17">C</text>
		<text transform="matrix(1 0 0 1 240.29 98.04)" class="st15 st17">A2</text>
	</g>
	<g id="Hippocampus_CA3">
		<path class="st21" d="M216.5,108.2c0,0,10.6,3,18.8,2.2c2-0.2,3.4,0,4.9-0.8c2.4-2.5,4.8-4.8,7.4-7c0,0,2.2-2.9,6-7.6
			c1.1-1.4,2.2-3.5,3.6-5.2c0.5-0.8,1.3-1.5,2.1-1.9c0,0,6.8,10.8,5,22.8c0,0-1.8,8.4-6.3,11.2c-2.1,1.3-6,3.6-8.7,3
			c-2-0.4-3.5-1-6-1.5c-2.2-0.4-4.9-1.7-3.9-3.8c0.9-1.8-7.4-3-13.4-4.2c-3.6-0.7-7.1-1.7-10.5-2.9c-0.6-0.2-0.9-1.6-0.5-2.6
			S216.2,108.7,216.5,108.2z"/>
		<text transform="matrix(1 0 0 1 241.69 117.63)" class="st15 st17">C</text>
		<text transform="matrix(1 0 0 1 248.11 117.63)" class="st15 st17">A3</text>
	</g>
	<text transform="matrix(1 0 0 1 63.45 204.29)" class="st15 st16">C</text>
	<text transform="matrix(1 0 0 1 70.85 204.29)" class="st15 st16">o</text>
	<text transform="matrix(1 0 0 1 77.98 204.29)" class="st15 st16">r</text>
	<text transform="matrix(1 0 0 1 82.55 204.29)" class="st15 st16">ti</text>
	<text transform="matrix(1 0 0 1 89.89 204.29)" class="st15 st16">c</text>
	<text transform="matrix(1 0 0 1 95.64 204.29)" class="st15 st16">ospinal tract</text>
	<line class="st18" x1="165.6" y1="176.4" x2="239.6" y2="156.3"/>
	<text transform="matrix(1 0 0 1 33.85 168.44)" class="st15 st17">M</text>
	<text transform="matrix(1 0 0 1 42.76 168.44)" class="st15 st17">ediodorsal nucleus</text>
	<line class="st18" x1="132.2" y1="165.4" x2="191.4" y2="156"/>
	<g id="DentateGyrus">
		<path id="DentateGyrus-2" class="st22" d="M218.5,103.2c0,0,7.2,4.3,19.5,5.1c0,0,3-0.8,2,1.4c0,0-13.2,2.5-23.6-1.6
			c0,0-3.1,3.1-0.5,4.4c3.5,1.8,24.5,5.8,23.7,6.5c-1.1,1-12.5,0.1-19.8-0.4c-4.5-0.3-12.7,0-14.7,0.1c-5.4,0.3-7.7,0.4-9.5-0.4
			c-1.9-0.7-9-11.7-7.5-16c0.5-1.5,3.6,0.8,6.7,1.2c2.6,0.3,5.7,0.7,7.3,0.4C205.7,103.1,213.5,103.1,218.5,103.2z"/>
	</g>
</g>
</svg>
