<?xml version="1.0" encoding="utf-8"?>
<!-- Generator: Adobe Illustrator 26.0.3, SVG Export Plug-In . SVG Version: 6.00 Build 0)  -->
<svg version="1.1" id="Layer_1" xmlns:vectornator="http://vectornator.io"
	 xmlns="http://www.w3.org/2000/svg" xmlns:xlink="http://www.w3.org/1999/xlink" x="0px" y="0px" viewBox="0 0 686.1 1040"
	 style="enable-background:new 0 0 686.1 1040;" xml:space="preserve">
<style type="text/css">
	.st0{fill:#FFFFFF;}
	.st1{fill:none;stroke:#231F20;stroke-width:1.8886;stroke-miterlimit:7.5544;}
	.st2{clip-path:url(#SVGID_00000072271611915203639960000017255006150814456450_);}
	.st3{fill:none;stroke:#231F20;stroke-width:1.8886;stroke-miterlimit:7.5544;stroke-dasharray:11.4714,7.6469;}
	.st4{fill:#0056A7;fill-opacity:5.000000e-02;stroke:#ED1C24;stroke-width:2;stroke-miterlimit:10;}
	.st5{fill:#0056A7;fill-opacity:0.1;stroke:#ED1C24;stroke-width:2;stroke-miterlimit:10;}
</style>
<g id="cortex_layers_art" vectornator:layerName="cortex layers art">
	<g transform="matrix(0.200365 0 0 0.200365 205.074 12.3652)">
		
			<image style="overflow:visible;enable-background:new    ;" width="1098" height="2726" id="Image_2" xlink:href="924CE18D.jpg"  transform="matrix(1.8981 0 0 1.8893 -1023.5021 -41.7499)">
		</image>
	</g>
</g>
<g>
	<path class="st0" d="M441.5,72.6h2.4v15.5h8.9v2.1h-11.3V72.6z"/>
	<path class="st0" d="M456.5,86.8c0,0.6,0.2,1.1,0.7,1.5s1,0.5,1.6,0.5c0.8,0,1.5-0.2,2.2-0.5c1.2-0.6,1.8-1.5,1.8-2.9v-1.7
		c-0.3,0.2-0.6,0.3-1,0.4s-0.8,0.2-1.2,0.2l-1.3,0.2c-0.8,0.1-1.4,0.3-1.8,0.5C456.9,85.3,456.5,85.9,456.5,86.8z M461.8,82.4
		c0.5-0.1,0.8-0.3,1-0.6c0.1-0.2,0.1-0.5,0.1-0.8c0-0.7-0.3-1.3-0.8-1.6c-0.5-0.3-1.3-0.5-2.2-0.5c-1.1,0-1.9,0.3-2.4,0.9
		c-0.3,0.3-0.4,0.8-0.5,1.5h-2c0-1.6,0.6-2.7,1.5-3.3c1-0.6,2.1-0.9,3.4-0.9c1.5,0,2.7,0.3,3.7,0.9c0.9,0.6,1.4,1.5,1.4,2.7V88
		c0,0.2,0,0.4,0.1,0.5s0.3,0.2,0.6,0.2c0.1,0,0.2,0,0.3,0c0.1,0,0.2,0,0.4-0.1v1.6c-0.3,0.1-0.6,0.2-0.8,0.2c-0.2,0-0.4,0-0.7,0
		c-0.7,0-1.3-0.3-1.6-0.8c-0.2-0.3-0.3-0.7-0.4-1.2c-0.4,0.6-1.1,1.1-1.9,1.5s-1.7,0.6-2.7,0.6c-1.2,0-2.2-0.4-2.9-1.1
		c-0.8-0.7-1.1-1.6-1.1-2.7c0-1.2,0.4-2.1,1.1-2.8c0.7-0.7,1.7-1.1,2.9-1.2L461.8,82.4z"/>
	<path class="st0" d="M476.6,77.3h2.4c-0.3,0.8-1,2.7-2,5.6c-0.8,2.2-1.4,4-2,5.4c-1.2,3.3-2.1,5.3-2.6,6s-1.4,1.1-2.6,1.1
		c-0.3,0-0.5,0-0.7,0s-0.4-0.1-0.6-0.1v-2c0.4,0.1,0.6,0.2,0.8,0.2c0.2,0,0.3,0,0.4,0c0.4,0,0.7-0.1,0.9-0.2
		c0.2-0.1,0.3-0.3,0.5-0.5c0-0.1,0.2-0.4,0.4-1c0.2-0.6,0.4-1,0.5-1.3l-4.7-13.2h2.4l3.4,10.5L476.6,77.3z"/>
	<path class="st0" d="M486.2,77.1c0.9,0,1.8,0.2,2.6,0.6c0.9,0.4,1.5,1,2,1.7c0.4,0.6,0.7,1.4,0.9,2.3c0.1,0.6,0.2,1.5,0.2,2.8h-9.4
		c0,1.3,0.3,2.3,0.9,3.1c0.6,0.8,1.5,1.2,2.7,1.2c1.1,0,2-0.4,2.7-1.1c0.4-0.4,0.7-0.9,0.8-1.5h2.1c-0.1,0.5-0.2,1-0.6,1.6
		c-0.3,0.6-0.7,1.1-1.1,1.4c-0.7,0.6-1.5,1.1-2.4,1.3c-0.5,0.1-1.1,0.2-1.8,0.2c-1.6,0-3-0.6-4.1-1.7c-1.1-1.2-1.7-2.8-1.7-4.9
		s0.6-3.7,1.7-5C482.9,77.7,484.4,77.1,486.2,77.1z M489.6,82.7c-0.1-0.9-0.3-1.7-0.6-2.2c-0.6-1-1.6-1.6-3-1.6
		c-1,0-1.8,0.4-2.5,1.1s-1,1.6-1.1,2.7H489.6z"/>
	<path class="st0" d="M494.5,77.3h2.1v2.2c0.2-0.4,0.6-1,1.2-1.6c0.7-0.6,1.4-0.9,2.3-0.9c0,0,0.1,0,0.2,0s0.3,0,0.5,0v2.3
		c-0.1,0-0.2,0-0.4,0c-0.1,0-0.2,0-0.4,0c-1.1,0-1.9,0.3-2.5,1s-0.9,1.5-0.9,2.4v7.4h-2.2L494.5,77.3L494.5,77.3z"/>
	<path class="st0" d="M510.3,72.6h2.4v17.6h-2.4L510.3,72.6L510.3,72.6z"/>
</g>
<g>
	<path class="st0" d="M441.5,102h3.4l5.1,14.9l5-14.9h3.4v17.6h-2.3v-10.4c0-0.4,0-1,0-1.8s0-1.7,0-2.7l-5,14.9h-2.4l-5.1-14.9v0.5
		c0,0.4,0,1.1,0,2s0,1.5,0,1.9v10.4h-2.3V102H441.5z"/>
	<path class="st0" d="M466.8,118.2c1.4,0,2.4-0.5,2.9-1.6s0.8-2.3,0.8-3.6c0-1.2-0.2-2.2-0.6-2.9c-0.6-1.2-1.7-1.8-3.1-1.8
		c-1.3,0-2.3,0.5-2.9,1.5s-0.9,2.2-0.9,3.6s0.3,2.5,0.9,3.4C464.5,117.8,465.5,118.2,466.8,118.2z M466.9,106.4
		c1.7,0,3.1,0.6,4.2,1.7s1.7,2.7,1.7,4.9c0,2.1-0.5,3.8-1.5,5.1c-1,1.4-2.6,2-4.7,2c-1.8,0-3.2-0.6-4.2-1.8c-1-1.2-1.6-2.8-1.6-4.8
		c0-2.2,0.5-3.9,1.6-5.2C463.5,107.1,465,106.4,466.9,106.4z"/>
	<path class="st0" d="M475.4,102h2.2v17.6h-2.2V102z"/>
	<path class="st0" d="M486.1,106.5c0.9,0,1.8,0.2,2.6,0.6c0.9,0.4,1.5,1,2,1.7c0.4,0.6,0.7,1.4,0.9,2.3c0.1,0.6,0.2,1.5,0.2,2.8
		h-9.4c0,1.3,0.3,2.3,0.9,3.1c0.6,0.8,1.5,1.2,2.7,1.2c1.1,0,2-0.4,2.7-1.1c0.4-0.4,0.7-0.9,0.8-1.5h2.1c-0.1,0.5-0.2,1-0.6,1.6
		c-0.3,0.6-0.7,1.1-1.1,1.4c-0.7,0.6-1.5,1.1-2.4,1.3c-0.5,0.1-1.1,0.2-1.8,0.2c-1.6,0-3-0.6-4.1-1.7c-1.1-1.2-1.7-2.8-1.7-4.9
		s0.6-3.7,1.7-5C482.9,107.2,484.3,106.5,486.1,106.5z M489.6,112.2c-0.1-0.9-0.3-1.7-0.6-2.2c-0.6-1-1.6-1.6-3-1.6
		c-1,0-1.8,0.4-2.5,1.1s-1,1.6-1.1,2.7H489.6z"/>
	<path class="st0" d="M499.4,106.4c1.4,0,2.6,0.4,3.5,1.1s1.5,1.9,1.6,3.6h-2.1c-0.1-0.8-0.4-1.4-0.9-2c-0.5-0.5-1.2-0.8-2.2-0.8
		c-1.4,0-2.4,0.7-3,2c-0.4,0.9-0.6,1.9-0.6,3.2c0,1.3,0.3,2.4,0.8,3.2c0.5,0.9,1.4,1.3,2.6,1.3c0.9,0,1.6-0.3,2.1-0.8
		s0.9-1.3,1.1-2.2h2.1c-0.2,1.7-0.8,2.9-1.8,3.7c-1,0.8-2.2,1.2-3.7,1.2c-1.7,0-3-0.6-4-1.8c-1-1.2-1.5-2.8-1.5-4.6
		c0-2.3,0.5-4,1.6-5.3C496.3,107.1,497.7,106.4,499.4,106.4z"/>
	<path class="st0" d="M508.9,106.8v8.5c0,0.7,0.1,1.2,0.3,1.6c0.4,0.8,1.1,1.2,2.1,1.2c1.5,0,2.5-0.7,3.1-2c0.3-0.7,0.4-1.7,0.4-3
		v-6.3h2.2v12.8h-2v-1.9c-0.3,0.5-0.6,0.9-1,1.2c-0.8,0.7-1.8,1-3,1c-1.8,0-3.1-0.6-3.7-1.8c-0.4-0.7-0.5-1.5-0.5-2.6v-8.7
		C506.8,106.8,508.9,106.8,508.9,106.8z"/>
	<path class="st0" d="M520.4,102h2.2v17.6h-2.2V102z"/>
	<path class="st0" d="M527.5,116.2c0,0.6,0.2,1.1,0.7,1.5s1,0.5,1.6,0.5c0.8,0,1.5-0.2,2.2-0.5c1.2-0.6,1.8-1.5,1.8-2.9v-1.7
		c-0.3,0.2-0.6,0.3-1,0.4s-0.8,0.2-1.2,0.2l-1.3,0.2c-0.8,0.1-1.4,0.3-1.8,0.5C527.8,114.8,527.5,115.4,527.5,116.2z M532.7,111.9
		c0.5-0.1,0.8-0.3,1-0.6c0.1-0.2,0.1-0.5,0.1-0.8c0-0.7-0.3-1.3-0.8-1.6c-0.5-0.3-1.3-0.5-2.2-0.5c-1.1,0-1.9,0.3-2.4,0.9
		c-0.3,0.3-0.4,0.8-0.5,1.5h-2c0-1.6,0.6-2.7,1.5-3.3c1-0.6,2.1-0.9,3.4-0.9c1.5,0,2.7,0.3,3.7,0.9c0.9,0.6,1.4,1.5,1.4,2.7v7.4
		c0,0.2,0,0.4,0.1,0.5s0.3,0.2,0.6,0.2c0.1,0,0.2,0,0.3,0s0.2,0,0.4-0.1v1.6c-0.3,0.1-0.6,0.2-0.8,0.2s-0.4,0-0.7,0
		c-0.7,0-1.3-0.3-1.6-0.8c-0.2-0.3-0.3-0.7-0.4-1.2c-0.4,0.6-1.1,1.1-1.9,1.5c-0.8,0.4-1.7,0.6-2.7,0.6c-1.2,0-2.2-0.4-2.9-1.1
		c-0.8-0.7-1.1-1.6-1.1-2.7c0-1.2,0.4-2.1,1.1-2.8c0.7-0.7,1.7-1.1,2.9-1.2L532.7,111.9z"/>
	<path class="st0" d="M539.5,106.8h2v2.2c0.2-0.4,0.6-1,1.2-1.6c0.7-0.6,1.4-0.9,2.3-0.9c0,0,0.1,0,0.2,0c0.1,0,0.3,0,0.5,0v2.3
		c-0.1,0-0.2,0-0.4,0c-0.1,0-0.2,0-0.4,0c-1.1,0-1.9,0.3-2.5,1s-0.9,1.5-0.9,2.4v7.4h-2.2v-12.8H539.5z"/>
	<path class="st0" d="M551.7,102h1.8l-5.6,17.6h-1.8L551.7,102z"/>
	<path class="st0" d="M555,102h7.9c1.6,0,2.8,0.4,3.8,1.3s1.4,2.1,1.4,3.7c0,1.4-0.4,2.6-1.3,3.6c-0.9,1-2.2,1.5-3.9,1.5h-5.5v7.4
		H555V102z M565.7,107.1c0-1.3-0.5-2.2-1.4-2.6c-0.5-0.2-1.3-0.4-2.2-0.4h-4.7v6.1h4.7c1.1,0,1.9-0.2,2.6-0.7
		C565.4,109,565.7,108.2,565.7,107.1z"/>
	<path class="st0" d="M570.9,102h2.2v17.6h-2.2V102z"/>
	<path class="st0" d="M581.7,106.5c0.9,0,1.8,0.2,2.6,0.6c0.9,0.4,1.5,1,2,1.7c0.4,0.6,0.7,1.4,0.9,2.3c0.1,0.6,0.2,1.5,0.2,2.8H578
		c0,1.3,0.3,2.3,0.9,3.1c0.6,0.8,1.5,1.2,2.7,1.2c1.1,0,2-0.4,2.7-1.1c0.4-0.4,0.7-0.9,0.8-1.5h2.1c-0.1,0.5-0.2,1-0.6,1.6
		c-0.3,0.6-0.7,1.1-1.1,1.4c-0.7,0.6-1.5,1.1-2.4,1.3c-0.5,0.1-1.1,0.2-1.8,0.2c-1.6,0-3-0.6-4.1-1.7c-1.1-1.2-1.7-2.8-1.7-4.9
		s0.6-3.7,1.7-5S579.9,106.5,581.7,106.5z M585.1,112.2c-0.1-0.9-0.3-1.7-0.6-2.2c-0.6-1-1.6-1.6-3-1.6c-1,0-1.8,0.4-2.5,1.1
		s-1,1.6-1.1,2.7H585.1z"/>
	<path class="st0" d="M588.7,106.8h2.8l2.9,4.5l3-4.5l2.6,0.1l-4.3,6.2l4.5,6.6h-2.8l-3.2-4.8l-3.1,4.8h-2.7l4.5-6.6L588.7,106.8z"
		/>
	<path class="st0" d="M602.2,106.9h2.2v12.8h-2.2V106.9z M602.2,102h2.2v2.4h-2.2V102z"/>
	<path class="st0" d="M608.2,104.8c0-0.9,0.2-1.6,0.5-2c0.5-0.7,1.5-1.1,2.9-1.1c0.1,0,0.3,0,0.4,0c0.1,0,0.3,0,0.5,0v2
		c-0.2,0-0.4,0-0.5,0s-0.2,0-0.3,0c-0.7,0-1,0.2-1.2,0.5c-0.1,0.3-0.2,1.2-0.2,2.6h2.1v1.7h-2.2v11.1h-2.1v-11.1h-1.8v-1.7h1.8
		L608.2,104.8L608.2,104.8z"/>
	<path class="st0" d="M619.6,118.2c1.4,0,2.4-0.5,2.9-1.6s0.8-2.3,0.8-3.6c0-1.2-0.2-2.2-0.6-2.9c-0.6-1.2-1.7-1.8-3.1-1.8
		c-1.3,0-2.3,0.5-2.9,1.5c-0.6,1-0.9,2.2-0.9,3.6s0.3,2.5,0.9,3.4C617.4,117.8,618.3,118.2,619.6,118.2z M619.7,106.4
		c1.7,0,3.1,0.6,4.2,1.7c1.1,1.1,1.7,2.7,1.7,4.9c0,2.1-0.5,3.8-1.5,5.1c-1,1.4-2.6,2-4.7,2c-1.8,0-3.2-0.6-4.2-1.8
		c-1-1.2-1.6-2.8-1.6-4.8c0-2.2,0.5-3.9,1.6-5.2C616.4,107.1,617.9,106.4,619.7,106.4z"/>
	<path class="st0" d="M628.2,106.8h2v2.2c0.2-0.4,0.6-1,1.2-1.6c0.7-0.6,1.4-0.9,2.3-0.9c0,0,0.1,0,0.2,0c0.1,0,0.3,0,0.5,0v2.3
		c-0.1,0-0.2,0-0.4,0c-0.1,0-0.2,0-0.4,0c-1.1,0-1.9,0.3-2.5,1s-0.9,1.5-0.9,2.4v7.4H628v-12.8H628.2z"/>
	<path class="st0" d="M636.4,106.8h2.1v1.8c0.5-0.6,1-1.1,1.4-1.4c0.7-0.5,1.5-0.7,2.4-0.7c1,0,1.8,0.3,2.5,0.8
		c0.4,0.3,0.7,0.7,1,1.3c0.5-0.7,1-1.2,1.7-1.5c0.6-0.3,1.4-0.5,2.2-0.5c1.7,0,2.9,0.6,3.5,1.9c0.3,0.7,0.5,1.6,0.5,2.7v8.5h-2.2
		v-8.9c0-0.9-0.2-1.4-0.6-1.8c-0.4-0.3-1-0.5-1.6-0.5c-0.8,0-1.6,0.3-2.2,0.9c-0.6,0.6-0.9,1.5-0.9,2.8v7.5H644v-8.4
		c0-0.9-0.1-1.5-0.3-1.9c-0.3-0.6-0.9-0.9-1.8-0.9c-0.8,0-1.6,0.3-2.2,0.9c-0.7,0.6-1,1.8-1,3.4v6.8h-2.2L636.4,106.8
		C636.5,106.8,636.4,106.8,636.4,106.8z"/>
</g>
<g>
	<path class="st0" d="M443.4,9.5h7.9c1.6,0,2.8,0.4,3.8,1.3c1,0.9,1.4,2.1,1.4,3.7c0,1.4-0.4,2.6-1.3,3.6s-2.2,1.5-3.9,1.5h-5.5V27
		h-2.4V9.5z M454.1,14.6c0-1.3-0.5-2.2-1.4-2.6c-0.5-0.2-1.3-0.4-2.2-0.4h-4.7v6.1h4.7c1.1,0,1.9-0.2,2.6-0.7S454.1,15.7,454.1,14.6
		z"/>
	<path class="st0" d="M459.3,14.3h2.2v12.8h-2.2V14.3z M459.3,9.5h2.2V12h-2.2V9.5z"/>
	<path class="st0" d="M466.4,23.7c0,0.6,0.2,1.1,0.7,1.5s1,0.5,1.6,0.5c0.8,0,1.5-0.2,2.2-0.5c1.2-0.6,1.8-1.5,1.8-2.9v-1.7
		c-0.3,0.2-0.6,0.3-1,0.4s-0.8,0.2-1.2,0.2l-1.3,0.2c-0.8,0.1-1.4,0.3-1.8,0.5C466.7,22.3,466.4,22.9,466.4,23.7z M471.6,19.3
		c0.5-0.1,0.8-0.3,1-0.6c0.1-0.2,0.1-0.5,0.1-0.8c0-0.7-0.3-1.3-0.8-1.6c-0.5-0.3-1.3-0.5-2.2-0.5c-1.1,0-1.9,0.3-2.4,0.9
		c-0.3,0.3-0.4,0.8-0.5,1.5h-2c0-1.6,0.6-2.7,1.5-3.3c1-0.6,2.1-0.9,3.4-0.9c1.5,0,2.7,0.3,3.7,0.9c0.9,0.6,1.4,1.5,1.4,2.7V25
		c0,0.2,0,0.4,0.1,0.5s0.3,0.2,0.6,0.2c0.1,0,0.2,0,0.3,0c0.1,0,0.2,0,0.4-0.1v1.6c-0.3,0.1-0.6,0.2-0.8,0.2c-0.2,0-0.4,0-0.7,0
		c-0.7,0-1.3-0.3-1.6-0.8c-0.2-0.3-0.3-0.7-0.4-1.2c-0.4,0.6-1.1,1.1-1.9,1.5s-1.7,0.6-2.7,0.6c-1.2,0-2.2-0.4-2.9-1.1
		c-0.8-0.7-1.1-1.6-1.1-2.7c0-1.2,0.4-2.1,1.1-2.8c0.7-0.7,1.7-1.1,2.9-1.2L471.6,19.3z"/>
	<path class="st0" d="M485.2,14.3h2.1v1.8c0.5-0.6,1-1.1,1.4-1.4c0.7-0.5,1.5-0.7,2.4-0.7c1,0,1.8,0.3,2.5,0.8
		c0.4,0.3,0.7,0.7,1,1.3c0.5-0.7,1-1.2,1.7-1.5c0.6-0.3,1.4-0.5,2.2-0.5c1.7,0,2.9,0.6,3.5,1.9c0.3,0.7,0.5,1.6,0.5,2.7v8.5h-2.2
		v-8.9c0-0.9-0.2-1.4-0.6-1.8c-0.4-0.3-0.9-0.5-1.6-0.5c-0.8,0-1.6,0.3-2.2,0.9s-0.9,1.5-0.9,2.8v7.5h-2.2v-8.4
		c0-0.9-0.1-1.5-0.3-1.9c-0.3-0.6-0.9-0.9-1.8-0.9c-0.8,0-1.6,0.3-2.2,0.9c-0.7,0.6-1,1.8-1,3.4v6.8h-2.2L485.2,14.3L485.2,14.3z"/>
	<path class="st0" d="M507.3,23.7c0,0.6,0.2,1.1,0.7,1.5s1,0.5,1.6,0.5c0.8,0,1.5-0.2,2.2-0.5c1.2-0.6,1.8-1.5,1.8-2.9v-1.7
		c-0.3,0.2-0.6,0.3-1,0.4s-0.8,0.2-1.2,0.2l-1.3,0.2c-0.8,0.1-1.4,0.3-1.8,0.5C507.6,22.3,507.3,22.9,507.3,23.7z M512.5,19.3
		c0.5-0.1,0.8-0.3,1-0.6c0.1-0.2,0.1-0.5,0.1-0.8c0-0.7-0.3-1.3-0.8-1.6c-0.5-0.3-1.3-0.5-2.2-0.5c-1.1,0-1.9,0.3-2.4,0.9
		c-0.3,0.3-0.4,0.8-0.5,1.5h-2c0-1.6,0.6-2.7,1.5-3.3c1-0.6,2.1-0.9,3.4-0.9c1.5,0,2.7,0.3,3.7,0.9c0.9,0.6,1.4,1.5,1.4,2.7V25
		c0,0.2,0,0.4,0.1,0.5s0.3,0.2,0.6,0.2c0.1,0,0.2,0,0.3,0s0.2,0,0.4-0.1v1.6c-0.3,0.1-0.6,0.2-0.8,0.2s-0.4,0-0.7,0
		c-0.7,0-1.3-0.3-1.6-0.8c-0.2-0.3-0.3-0.7-0.4-1.2c-0.4,0.6-1.1,1.1-1.9,1.5c-0.8,0.4-1.7,0.6-2.7,0.6c-1.2,0-2.2-0.4-2.9-1.1
		c-0.8-0.7-1.1-1.6-1.1-2.7c0-1.2,0.4-2.1,1.1-2.8c0.7-0.7,1.7-1.1,2.9-1.2L512.5,19.3z"/>
	<path class="st0" d="M519.7,10.7h2.2v3.6h2v1.8h-2v8.4c0,0.4,0.2,0.7,0.5,0.9c0.2,0.1,0.4,0.1,0.8,0.1c0.1,0,0.2,0,0.3,0
		s0.3,0,0.4,0v1.7c-0.2,0.1-0.5,0.1-0.8,0.2c-0.3,0-0.6,0-0.9,0c-1,0-1.7-0.3-2-0.8c-0.4-0.5-0.5-1.2-0.5-2v-8.5H518v-1.8h1.7V10.7z
		"/>
	<path class="st0" d="M531.5,14c0.9,0,1.8,0.2,2.6,0.6c0.9,0.4,1.5,1,2,1.7c0.4,0.6,0.7,1.4,0.9,2.3c0.1,0.6,0.2,1.5,0.2,2.8h-9.4
		c0,1.3,0.3,2.3,0.9,3.1c0.6,0.8,1.5,1.2,2.7,1.2c1.1,0,2-0.4,2.7-1.1c0.4-0.4,0.7-0.9,0.8-1.5h2.1c-0.1,0.5-0.2,1-0.6,1.6
		c-0.3,0.6-0.7,1.1-1.1,1.4c-0.7,0.6-1.5,1.1-2.4,1.3c-0.5,0.1-1.1,0.2-1.8,0.2c-1.6,0-3-0.6-4.1-1.7c-1.1-1.2-1.7-2.8-1.7-4.9
		s0.6-3.7,1.7-5C528.2,14.6,529.7,14,531.5,14z M534.9,19.7c-0.1-0.9-0.3-1.7-0.6-2.2c-0.6-1-1.6-1.6-3-1.6c-1,0-1.8,0.4-2.5,1.1
		s-1,1.6-1.1,2.7H534.9z"/>
	<path class="st0" d="M539.8,14.3h2.1v2.2c0.2-0.4,0.6-1,1.2-1.6c0.7-0.6,1.4-0.9,2.3-0.9c0,0,0.1,0,0.2,0c0.1,0,0.3,0,0.5,0v2.3
		c-0.1,0-0.2,0-0.4,0s-0.2,0-0.4,0c-1.1,0-1.9,0.3-2.5,1s-0.9,1.5-0.9,2.4v7.4h-2.1L539.8,14.3L539.8,14.3z"/>
</g>
<g>
	<path class="st0" d="M441.5,198.1h2.4v15.5h8.9v2.1h-11.3V198.1z"/>
	<path class="st0" d="M456.5,212.3c0,0.6,0.2,1.1,0.7,1.5s1,0.5,1.6,0.5c0.8,0,1.5-0.2,2.2-0.5c1.2-0.6,1.8-1.5,1.8-2.9v-1.7
		c-0.3,0.2-0.6,0.3-1,0.4c-0.4,0.1-0.8,0.2-1.2,0.2l-1.3,0.2c-0.8,0.1-1.4,0.3-1.8,0.5C456.9,210.9,456.5,211.5,456.5,212.3z
		 M461.8,208c0.5-0.1,0.8-0.3,1-0.6c0.1-0.2,0.1-0.5,0.1-0.8c0-0.7-0.3-1.3-0.8-1.6s-1.3-0.5-2.2-0.5c-1.1,0-1.9,0.3-2.4,0.9
		c-0.3,0.3-0.4,0.8-0.5,1.5h-2c0-1.6,0.6-2.7,1.5-3.3c1-0.6,2.1-0.9,3.4-0.9c1.5,0,2.7,0.3,3.7,0.9c0.9,0.6,1.4,1.5,1.4,2.7v7.4
		c0,0.2,0,0.4,0.1,0.5s0.3,0.2,0.6,0.2c0.1,0,0.2,0,0.3,0c0.1,0,0.2,0,0.4-0.1v1.6c-0.3,0.1-0.6,0.2-0.8,0.2c-0.2,0-0.4,0-0.7,0
		c-0.7,0-1.3-0.3-1.6-0.8c-0.2-0.3-0.3-0.7-0.4-1.2c-0.4,0.6-1.1,1.1-1.9,1.5s-1.7,0.6-2.7,0.6c-1.2,0-2.2-0.4-2.9-1.1
		c-0.8-0.7-1.1-1.6-1.1-2.7c0-1.2,0.4-2.1,1.1-2.8s1.7-1.1,2.9-1.2L461.8,208z"/>
	<path class="st0" d="M476.6,202.9h2.4c-0.3,0.8-1,2.7-2,5.6c-0.8,2.2-1.4,4-2,5.4c-1.2,3.3-2.1,5.3-2.6,6s-1.4,1.1-2.6,1.1
		c-0.3,0-0.5,0-0.7,0s-0.4-0.1-0.6-0.1v-2c0.4,0.1,0.6,0.2,0.8,0.2c0.2,0,0.3,0,0.4,0c0.4,0,0.7-0.1,0.9-0.2
		c0.2-0.1,0.3-0.3,0.5-0.5c0-0.1,0.2-0.4,0.4-1c0.2-0.6,0.4-1,0.5-1.3l-4.7-13.2h2.4l3.4,10.5L476.6,202.9z"/>
	<path class="st0" d="M486.2,202.6c0.9,0,1.8,0.2,2.6,0.6c0.9,0.4,1.5,1,2,1.7c0.4,0.6,0.7,1.4,0.9,2.3c0.1,0.6,0.2,1.5,0.2,2.8
		h-9.4c0,1.3,0.3,2.3,0.9,3.1s1.5,1.2,2.7,1.2c1.1,0,2-0.4,2.7-1.1c0.4-0.4,0.7-0.9,0.8-1.5h2.1c-0.1,0.5-0.2,1-0.6,1.6
		c-0.3,0.6-0.7,1.1-1.1,1.4c-0.7,0.6-1.5,1.1-2.4,1.3c-0.5,0.1-1.1,0.2-1.8,0.2c-1.6,0-3-0.6-4.1-1.7c-1.1-1.2-1.7-2.8-1.7-4.9
		c0-2.1,0.6-3.7,1.7-5C482.9,203.3,484.4,202.6,486.2,202.6z M489.6,208.3c-0.1-0.9-0.3-1.7-0.6-2.2c-0.6-1-1.6-1.6-3-1.6
		c-1,0-1.8,0.4-2.5,1.1c-0.7,0.7-1,1.6-1.1,2.7H489.6z"/>
	<path class="st0" d="M494.5,202.9h2.1v2.2c0.2-0.4,0.6-1,1.2-1.6c0.7-0.6,1.4-0.9,2.3-0.9c0,0,0.1,0,0.2,0s0.3,0,0.5,0v2.3
		c-0.1,0-0.2,0-0.4,0c-0.1,0-0.2,0-0.4,0c-1.1,0-1.9,0.3-2.5,1s-0.9,1.5-0.9,2.4v7.4h-2.2L494.5,202.9L494.5,202.9z"/>
	<path class="st0" d="M510.3,198.1h2.4v17.6h-2.4L510.3,198.1L510.3,198.1z"/>
	<path class="st0" d="M517.1,198.1h2.4v17.6h-2.4V198.1z"/>
</g>
<g>
	<path class="st0" d="M441.7,227.6h12.8v2.2H444v5.3h9.7v2H444v6h10.8v2.1h-13L441.7,227.6L441.7,227.6z"/>
	<path class="st0" d="M456.4,232.4h2.8l2.9,4.5l3-4.5l2.6,0.1l-4.3,6.2l4.5,6.6h-2.8l-3.2-4.8l-3.1,4.8h-2.7l4.5-6.6L456.4,232.4z"
		/>
	<path class="st0" d="M470.3,228.8h2.2v3.6h2.1v1.8h-2.1v8.4c0,0.4,0.2,0.7,0.5,0.9c0.2,0.1,0.4,0.1,0.8,0.1c0.1,0,0.2,0,0.3,0
		c0.1,0,0.3,0,0.4,0v1.7c-0.2,0.1-0.5,0.1-0.8,0.2c-0.3,0-0.6,0-0.9,0c-1,0-1.7-0.3-2-0.8c-0.4-0.5-0.5-1.2-0.5-2v-8.5h-1.7v-1.8
		h1.7V228.8z"/>
	<path class="st0" d="M482.1,232.1c0.9,0,1.8,0.2,2.6,0.6c0.9,0.4,1.5,1,2,1.7c0.4,0.6,0.7,1.4,0.9,2.3c0.1,0.6,0.2,1.5,0.2,2.8
		h-9.4c0,1.3,0.3,2.3,0.9,3.1s1.5,1.2,2.7,1.2c1.1,0,2-0.4,2.7-1.1c0.4-0.4,0.7-0.9,0.8-1.5h2.1c-0.1,0.5-0.2,1-0.6,1.6
		c-0.3,0.6-0.7,1.1-1.1,1.4c-0.7,0.6-1.5,1.1-2.4,1.3c-0.5,0.1-1.1,0.2-1.8,0.2c-1.6,0-3-0.6-4.1-1.7c-1.1-1.2-1.7-2.8-1.7-4.9
		c0-2.1,0.6-3.7,1.7-5C478.8,232.7,480.2,232.1,482.1,232.1z M485.5,237.8c-0.1-0.9-0.3-1.7-0.6-2.2c-0.6-1-1.6-1.6-3-1.6
		c-1,0-1.8,0.4-2.5,1.1c-0.7,0.7-1,1.6-1.1,2.7H485.5z"/>
	<path class="st0" d="M490.4,232.4h2.1v2.2c0.2-0.4,0.6-1,1.2-1.6c0.7-0.6,1.4-0.9,2.3-0.9c0,0,0.1,0,0.2,0s0.3,0,0.5,0v2.3
		c-0.1,0-0.2,0-0.4,0c-0.1,0-0.2,0-0.4,0c-1.1,0-1.9,0.3-2.5,1s-0.9,1.5-0.9,2.4v7.4h-2.2L490.4,232.4L490.4,232.4z"/>
	<path class="st0" d="M498.5,232.4h2v1.8c0.6-0.8,1.3-1.3,1.9-1.6c0.7-0.3,1.4-0.5,2.3-0.5c1.8,0,3.1,0.6,3.7,1.9
		c0.4,0.7,0.5,1.7,0.5,3v8.2h-2.1v-8.1c0-0.8-0.1-1.4-0.3-1.9c-0.4-0.8-1.1-1.2-2.1-1.2c-0.5,0-0.9,0.1-1.3,0.2
		c-0.6,0.2-1.1,0.5-1.6,1.1c-0.4,0.4-0.6,0.9-0.7,1.3c-0.1,0.5-0.2,1.1-0.2,1.9v6.7h-2.2v-12.8L498.5,232.4L498.5,232.4z"/>
	<path class="st0" d="M513.8,241.8c0,0.6,0.2,1.1,0.7,1.5s1,0.5,1.6,0.5c0.8,0,1.5-0.2,2.2-0.5c1.2-0.6,1.8-1.5,1.8-2.9v-1.7
		c-0.3,0.2-0.6,0.3-1,0.4c-0.4,0.1-0.8,0.2-1.2,0.2l-1.3,0.2c-0.8,0.1-1.4,0.3-1.8,0.5C514.2,240.4,513.8,241,513.8,241.8z
		 M519.1,237.4c0.5-0.1,0.8-0.3,1-0.6c0.1-0.2,0.1-0.5,0.1-0.8c0-0.7-0.3-1.3-0.8-1.6s-1.3-0.5-2.2-0.5c-1.1,0-1.9,0.3-2.4,0.9
		c-0.3,0.3-0.4,0.8-0.5,1.5h-2c0-1.6,0.6-2.7,1.5-3.3c1-0.6,2.1-0.9,3.4-0.9c1.5,0,2.7,0.3,3.7,0.9c0.9,0.6,1.4,1.5,1.4,2.7v7.4
		c0,0.2,0,0.4,0.1,0.5s0.3,0.2,0.6,0.2c0.1,0,0.2,0,0.3,0s0.2,0,0.4-0.1v1.6c-0.3,0.1-0.6,0.2-0.8,0.2s-0.4,0-0.7,0
		c-0.7,0-1.3-0.3-1.6-0.8c-0.2-0.3-0.3-0.7-0.4-1.2c-0.4,0.6-1.1,1.1-1.9,1.5s-1.7,0.6-2.7,0.6c-1.2,0-2.2-0.4-2.9-1.1
		c-0.8-0.7-1.1-1.6-1.1-2.7c0-1.2,0.4-2.1,1.1-2.8s1.7-1.1,2.9-1.2L519.1,237.4z"/>
	<path class="st0" d="M525.9,227.6h2.2v17.6h-2.2V227.6z"/>
	<path class="st0" d="M546,227.2c1.7,0,3.1,0.3,4.3,1c1.8,0.9,2.8,2.5,3.2,4.8h-2.4c-0.3-1.3-0.9-2.2-1.8-2.8
		c-0.9-0.6-2-0.9-3.4-0.9c-1.6,0-3,0.6-4.1,1.8s-1.7,3-1.7,5.5c0,2.1,0.5,3.8,1.4,5.1s2.4,2,4.5,2c1.6,0,2.9-0.5,4-1.4
		c1-0.9,1.6-2.4,1.6-4.5h-5.5v-2h7.7v9.4h-1.5l-0.6-2.3c-0.8,0.9-1.5,1.5-2.1,1.8c-1,0.6-2.4,0.9-4,0.9c-2.1,0-3.9-0.7-5.4-2
		c-1.6-1.7-2.5-4-2.5-7c0-2.9,0.8-5.3,2.4-7C541.6,228,543.6,227.2,546,227.2z"/>
	<path class="st0" d="M557.3,232.4h2.1v2.2c0.2-0.4,0.6-1,1.2-1.6c0.7-0.6,1.4-0.9,2.3-0.9c0,0,0.1,0,0.2,0c0.1,0,0.3,0,0.5,0v2.3
		c-0.1,0-0.2,0-0.4,0c-0.1,0-0.2,0-0.4,0c-1.1,0-1.9,0.3-2.5,1s-0.9,1.5-0.9,2.4v7.4h-2.2L557.3,232.4L557.3,232.4L557.3,232.4z"/>
	<path class="st0" d="M567,241.8c0,0.6,0.2,1.1,0.7,1.5s1,0.5,1.6,0.5c0.8,0,1.5-0.2,2.2-0.5c1.2-0.6,1.8-1.5,1.8-2.9v-1.7
		c-0.3,0.2-0.6,0.3-1,0.4c-0.4,0.1-0.8,0.2-1.2,0.2l-1.3,0.2c-0.8,0.1-1.4,0.3-1.8,0.5C567.4,240.4,567,241,567,241.8z M572.3,237.4
		c0.5-0.1,0.8-0.3,1-0.6c0.1-0.2,0.1-0.5,0.1-0.8c0-0.7-0.3-1.3-0.8-1.6s-1.3-0.5-2.2-0.5c-1.1,0-1.9,0.3-2.4,0.9
		c-0.3,0.3-0.4,0.8-0.5,1.5h-2c0-1.6,0.6-2.7,1.5-3.3c1-0.6,2.1-0.9,3.4-0.9c1.5,0,2.7,0.3,3.7,0.9c0.9,0.6,1.4,1.5,1.4,2.7v7.4
		c0,0.2,0,0.4,0.1,0.5s0.3,0.2,0.6,0.2c0.1,0,0.2,0,0.3,0s0.2,0,0.4-0.1v1.6c-0.3,0.1-0.6,0.2-0.8,0.2s-0.4,0-0.7,0
		c-0.7,0-1.3-0.3-1.6-0.8c-0.2-0.3-0.3-0.7-0.4-1.2c-0.4,0.6-1.1,1.1-1.9,1.5c-0.8,0.4-1.7,0.6-2.7,0.6c-1.2,0-2.2-0.4-2.9-1.1
		c-0.8-0.7-1.1-1.6-1.1-2.7c0-1.2,0.4-2.1,1.1-2.8c0.7-0.7,1.7-1.1,2.9-1.2L572.3,237.4z"/>
	<path class="st0" d="M579,232.4h2.1v1.8c0.6-0.8,1.3-1.3,1.9-1.6c0.7-0.3,1.4-0.5,2.3-0.5c1.8,0,3.1,0.6,3.7,1.9
		c0.4,0.7,0.5,1.7,0.5,3v8.2h-2.2v-8.1c0-0.8-0.1-1.4-0.3-1.9c-0.4-0.8-1.1-1.2-2.1-1.2c-0.5,0-0.9,0.1-1.3,0.2
		c-0.6,0.2-1.1,0.5-1.6,1.1c-0.4,0.4-0.6,0.9-0.7,1.3c-0.1,0.5-0.2,1.1-0.2,1.9v6.7h-2.2L579,232.4L579,232.4z"/>
	<path class="st0" d="M594.9,232.4v8.5c0,0.7,0.1,1.2,0.3,1.6c0.4,0.8,1.1,1.2,2.1,1.2c1.5,0,2.5-0.7,3.1-2c0.3-0.7,0.4-1.7,0.4-3
		v-6.3h2.2v12.8h-2v-1.9c-0.3,0.5-0.6,0.9-1,1.2c-0.8,0.7-1.8,1-3,1c-1.8,0-3.1-0.6-3.7-1.8c-0.4-0.7-0.5-1.5-0.5-2.6v-8.7H594.9z"
		/>
	<path class="st0" d="M606.4,227.6h2.2v17.6h-2.2V227.6z"/>
	<path class="st0" d="M613.5,241.8c0,0.6,0.2,1.1,0.7,1.5s1,0.5,1.6,0.5c0.8,0,1.5-0.2,2.2-0.5c1.2-0.6,1.8-1.5,1.8-2.9v-1.7
		c-0.3,0.2-0.6,0.3-1,0.4c-0.4,0.1-0.8,0.2-1.2,0.2l-1.3,0.2c-0.8,0.1-1.4,0.3-1.8,0.5C613.8,240.4,613.5,241,613.5,241.8z
		 M618.7,237.4c0.5-0.1,0.8-0.3,1-0.6c0.1-0.2,0.1-0.5,0.1-0.8c0-0.7-0.3-1.3-0.8-1.6s-1.3-0.5-2.2-0.5c-1.1,0-1.9,0.3-2.4,0.9
		c-0.3,0.3-0.4,0.8-0.5,1.5h-2c0-1.6,0.6-2.7,1.5-3.3c1-0.6,2.1-0.9,3.4-0.9c1.5,0,2.7,0.3,3.7,0.9c0.9,0.6,1.4,1.5,1.4,2.7v7.4
		c0,0.2,0,0.4,0.1,0.5s0.3,0.2,0.6,0.2c0.1,0,0.2,0,0.3,0s0.2,0,0.4-0.1v1.6c-0.3,0.1-0.6,0.2-0.8,0.2s-0.4,0-0.7,0
		c-0.7,0-1.3-0.3-1.6-0.8c-0.2-0.3-0.3-0.7-0.4-1.2c-0.4,0.6-1.1,1.1-1.9,1.5c-0.8,0.4-1.7,0.6-2.7,0.6c-1.2,0-2.2-0.4-2.9-1.1
		c-0.8-0.7-1.1-1.6-1.1-2.7c0-1.2,0.4-2.1,1.1-2.8c0.7-0.7,1.7-1.1,2.9-1.2L618.7,237.4z"/>
	<path class="st0" d="M625.5,232.4h2.1v2.2c0.2-0.4,0.6-1,1.2-1.6c0.7-0.6,1.4-0.9,2.3-0.9c0,0,0.1,0,0.2,0c0.1,0,0.3,0,0.5,0v2.3
		c-0.1,0-0.2,0-0.4,0c-0.1,0-0.2,0-0.4,0c-1.1,0-1.9,0.3-2.5,1s-0.9,1.5-0.9,2.4v7.4h-2.2v-12.8L625.5,232.4L625.5,232.4z"/>
</g>
<g>
	<path class="st0" d="M442.2,400.2h2.4v15.5h8.9v2.1h-11.3V400.2z"/>
	<path class="st0" d="M457.2,414.4c0,0.6,0.2,1.1,0.7,1.5s1,0.5,1.6,0.5c0.8,0,1.5-0.2,2.2-0.5c1.2-0.6,1.8-1.5,1.8-2.9v-1.7
		c-0.3,0.2-0.6,0.3-1,0.4s-0.8,0.2-1.2,0.2l-1.3,0.2c-0.8,0.1-1.4,0.3-1.8,0.5C457.5,413,457.2,413.6,457.2,414.4z M462.4,410.1
		c0.5-0.1,0.8-0.3,1-0.6c0.1-0.2,0.1-0.5,0.1-0.8c0-0.7-0.3-1.3-0.8-1.6c-0.5-0.3-1.3-0.5-2.2-0.5c-1.1,0-1.9,0.3-2.4,0.9
		c-0.3,0.3-0.4,0.8-0.5,1.5h-2c0-1.6,0.6-2.7,1.5-3.3c1-0.6,2.1-0.9,3.4-0.9c1.5,0,2.7,0.3,3.7,0.9c0.9,0.6,1.4,1.5,1.4,2.7v7.4
		c0,0.2,0,0.4,0.1,0.5s0.3,0.2,0.6,0.2c0.1,0,0.2,0,0.3,0c0.1,0,0.2,0,0.4-0.1v1.6c-0.3,0.1-0.6,0.2-0.8,0.2c-0.2,0-0.4,0-0.7,0
		c-0.7,0-1.3-0.3-1.6-0.8c-0.2-0.3-0.3-0.7-0.4-1.2c-0.4,0.6-1.1,1.1-1.9,1.5s-1.7,0.6-2.7,0.6c-1.2,0-2.2-0.4-2.9-1.1
		s-1.1-1.6-1.1-2.7c0-1.2,0.4-2.1,1.1-2.8c0.7-0.7,1.7-1.1,2.9-1.2L462.4,410.1z"/>
	<path class="st0" d="M477.2,405h2.4c-0.3,0.8-1,2.7-2,5.6c-0.8,2.2-1.4,4-2,5.4c-1.2,3.3-2.1,5.3-2.6,6s-1.4,1.1-2.6,1.1
		c-0.3,0-0.5,0-0.7,0s-0.4-0.1-0.6-0.1v-2c0.4,0.1,0.6,0.2,0.8,0.2c0.2,0,0.3,0,0.4,0c0.4,0,0.7-0.1,0.9-0.2s0.3-0.3,0.5-0.5
		c0-0.1,0.2-0.4,0.4-1c0.2-0.6,0.4-1,0.5-1.3l-4.8-13.2h2.4l3.4,10.5L477.2,405z"/>
	<path class="st0" d="M486.8,404.7c0.9,0,1.8,0.2,2.6,0.6c0.9,0.4,1.5,1,2,1.7c0.4,0.6,0.7,1.4,0.9,2.3c0.1,0.6,0.2,1.5,0.2,2.8
		h-9.4c0,1.3,0.3,2.3,0.9,3.1c0.6,0.8,1.5,1.2,2.7,1.2c1.1,0,2-0.4,2.7-1.1c0.4-0.4,0.7-0.9,0.8-1.5h2.1c-0.1,0.5-0.2,1-0.6,1.6
		c-0.3,0.6-0.7,1.1-1.1,1.4c-0.7,0.6-1.5,1.1-2.4,1.3c-0.5,0.1-1.1,0.2-1.8,0.2c-1.6,0-3-0.6-4.1-1.7c-1.1-1.2-1.7-2.8-1.7-4.9
		s0.6-3.7,1.7-5C483.5,405.4,485,404.7,486.8,404.7z M490.2,410.4c-0.1-0.9-0.3-1.7-0.6-2.2c-0.6-1-1.6-1.6-3-1.6
		c-1,0-1.8,0.4-2.5,1.1s-1,1.6-1.1,2.7H490.2z"/>
	<path class="st0" d="M495.2,405h2.1v2.2c0.2-0.4,0.6-1,1.2-1.6c0.7-0.6,1.4-0.9,2.3-0.9c0,0,0.1,0,0.2,0s0.3,0,0.5,0v2.3
		c-0.1,0-0.2,0-0.4,0c-0.1,0-0.2,0-0.4,0c-1.1,0-1.9,0.3-2.5,1s-0.9,1.5-0.9,2.4v7.4h-2.2L495.2,405L495.2,405z"/>
	<path class="st0" d="M510.9,400.2h2.4v17.6h-2.4V400.2z"/>
	<path class="st0" d="M517.8,400.2h2.4v17.6h-2.4V400.2z"/>
	<path class="st0" d="M524.6,400.2h2.4v17.6h-2.4V400.2z"/>
</g>
<g>
	<path class="st0" d="M442.4,429.7h12.8v2.2h-10.5v5.3h9.7v2h-9.7v6h10.7v2.1h-13V429.7z"/>
	<path class="st0" d="M457,434.5h2.8l3,4.5l3-4.5l2.6,0.1l-4.3,6.2l4.5,6.6h-2.8l-3.2-4.8l-3.1,4.8h-2.7l4.5-6.6L457,434.5z"/>
	<path class="st0" d="M471,430.9h2.2v3.6h2.1v1.8h-2.1v8.4c0,0.4,0.2,0.7,0.5,0.9c0.2,0.1,0.4,0.1,0.8,0.1c0.1,0,0.2,0,0.3,0
		c0.1,0,0.3,0,0.4,0v1.7c-0.2,0.1-0.5,0.1-0.8,0.2c-0.3,0-0.6,0-0.9,0c-1,0-1.7-0.3-2-0.8c-0.4-0.5-0.5-1.2-0.5-2v-8.5h-1.7v-1.8
		h1.7V430.9z"/>
	<path class="st0" d="M482.7,434.2c0.9,0,1.8,0.2,2.6,0.6c0.9,0.4,1.5,1,2,1.7c0.4,0.6,0.7,1.4,0.9,2.3c0.1,0.6,0.2,1.5,0.2,2.8H479
		c0,1.3,0.3,2.3,0.9,3.1c0.6,0.8,1.5,1.2,2.7,1.2c1.1,0,2-0.4,2.7-1.1c0.4-0.4,0.7-0.9,0.8-1.5h2.1c-0.1,0.5-0.2,1-0.6,1.6
		c-0.3,0.6-0.7,1.1-1.1,1.4c-0.7,0.6-1.5,1.1-2.4,1.3c-0.5,0.1-1.1,0.2-1.8,0.2c-1.6,0-3-0.6-4.1-1.7c-1.1-1.2-1.7-2.8-1.7-4.9
		s0.6-3.7,1.7-5C479.4,434.8,480.9,434.2,482.7,434.2z M486.1,439.9c-0.1-0.9-0.3-1.7-0.6-2.2c-0.6-1-1.6-1.6-3-1.6
		c-1,0-1.8,0.4-2.5,1.1s-1,1.6-1.1,2.7H486.1z"/>
	<path class="st0" d="M491.1,434.5h2.1v2.2c0.2-0.4,0.6-1,1.2-1.6c0.7-0.6,1.4-0.9,2.3-0.9c0,0,0.1,0,0.2,0s0.3,0,0.5,0v2.3
		c-0.1,0-0.2,0-0.4,0c-0.1,0-0.2,0-0.4,0c-1.1,0-1.9,0.3-2.5,1s-0.9,1.5-0.9,2.4v7.4H491L491.1,434.5L491.1,434.5z"/>
	<path class="st0" d="M499.2,434.5h2v1.8c0.6-0.8,1.3-1.3,1.9-1.6c0.7-0.3,1.4-0.5,2.3-0.5c1.8,0,3.1,0.6,3.7,1.9
		c0.4,0.7,0.5,1.7,0.5,3v8.2h-2.2v-8.1c0-0.8-0.1-1.4-0.3-1.9c-0.4-0.8-1.1-1.2-2.1-1.2c-0.5,0-0.9,0.1-1.3,0.2
		c-0.6,0.2-1.1,0.5-1.6,1.1c-0.4,0.4-0.6,0.9-0.7,1.3c-0.1,0.5-0.2,1.1-0.2,1.9v6.7H499v-12.8H499.2z"/>
	<path class="st0" d="M514.5,443.9c0,0.6,0.2,1.1,0.7,1.5s1,0.5,1.6,0.5c0.8,0,1.5-0.2,2.2-0.5c1.2-0.6,1.8-1.5,1.8-2.9v-1.7
		c-0.3,0.2-0.6,0.3-1,0.4s-0.8,0.2-1.2,0.2l-1.3,0.2c-0.8,0.1-1.4,0.3-1.8,0.5C514.8,442.5,514.5,443.1,514.5,443.9z M519.7,439.5
		c0.5-0.1,0.8-0.3,1-0.6c0.1-0.2,0.1-0.5,0.1-0.8c0-0.7-0.3-1.3-0.8-1.6c-0.5-0.3-1.3-0.5-2.2-0.5c-1.1,0-1.9,0.3-2.4,0.9
		c-0.3,0.3-0.4,0.8-0.5,1.5h-2c0-1.6,0.6-2.7,1.5-3.3c1-0.6,2.1-0.9,3.4-0.9c1.5,0,2.7,0.3,3.7,0.9c0.9,0.6,1.4,1.5,1.4,2.7v7.4
		c0,0.2,0,0.4,0.1,0.5s0.3,0.2,0.6,0.2c0.1,0,0.2,0,0.3,0s0.2,0,0.4-0.1v1.6c-0.3,0.1-0.6,0.2-0.8,0.2s-0.4,0-0.7,0
		c-0.7,0-1.3-0.3-1.6-0.8c-0.2-0.3-0.3-0.7-0.4-1.2c-0.4,0.6-1.1,1.1-1.9,1.5s-1.7,0.6-2.7,0.6c-1.2,0-2.2-0.4-2.9-1.1
		c-0.8-0.7-1.1-1.6-1.1-2.7c0-1.2,0.4-2.1,1.1-2.8c0.7-0.7,1.7-1.1,2.9-1.2L519.7,439.5z"/>
	<path class="st0" d="M526.5,429.7h2.2v17.6h-2.2V429.7z"/>
	<path class="st0" d="M539.3,429.7h7.9c1.6,0,2.8,0.4,3.8,1.3s1.4,2.1,1.4,3.7c0,1.4-0.4,2.6-1.3,3.6c-0.9,1-2.2,1.5-3.9,1.5h-5.5
		v7.4h-2.4V429.7z M550,434.8c0-1.3-0.5-2.2-1.4-2.6c-0.5-0.2-1.3-0.4-2.2-0.4h-4.7v6.1h4.7c1.1,0,1.9-0.2,2.6-0.7
		C549.7,436.7,550,435.9,550,434.8z"/>
	<path class="st0" d="M563.2,434.5h2.4c-0.3,0.8-1,2.7-2,5.6c-0.8,2.2-1.4,4-2,5.4c-1.2,3.3-2.1,5.3-2.6,6s-1.4,1.1-2.6,1.1
		c-0.3,0-0.5,0-0.7,0s-0.4-0.1-0.6-0.1v-2c0.4,0.1,0.6,0.2,0.8,0.2s0.3,0,0.4,0c0.4,0,0.7-0.1,0.9-0.2s0.3-0.3,0.5-0.5
		c0-0.1,0.2-0.4,0.4-1s0.4-1,0.5-1.3l-4.7-13.2h2.4l3.4,10.5L563.2,434.5z"/>
	<path class="st0" d="M567.5,434.5h2.1v2.2c0.2-0.4,0.6-1,1.2-1.6c0.7-0.6,1.4-0.9,2.3-0.9c0,0,0.1,0,0.2,0c0.1,0,0.3,0,0.5,0v2.3
		c-0.1,0-0.2,0-0.4,0c-0.1,0-0.2,0-0.4,0c-1.1,0-1.9,0.3-2.5,1s-0.9,1.5-0.9,2.4v7.4h-2.2v-12.8H567.5z"/>
	<path class="st0" d="M577.2,443.9c0,0.6,0.2,1.1,0.7,1.5s1,0.5,1.6,0.5c0.8,0,1.5-0.2,2.2-0.5c1.2-0.6,1.8-1.5,1.8-2.9v-1.7
		c-0.3,0.2-0.6,0.3-1,0.4s-0.8,0.2-1.2,0.2l-1.3,0.2c-0.8,0.1-1.4,0.3-1.8,0.5C577.6,442.5,577.2,443.1,577.2,443.9z M582.5,439.5
		c0.5-0.1,0.8-0.3,1-0.6c0.1-0.2,0.1-0.5,0.1-0.8c0-0.7-0.3-1.3-0.8-1.6c-0.5-0.3-1.3-0.5-2.2-0.5c-1.1,0-1.9,0.3-2.4,0.9
		c-0.3,0.3-0.4,0.8-0.5,1.5h-2c0-1.6,0.6-2.7,1.5-3.3c1-0.6,2.1-0.9,3.4-0.9c1.5,0,2.7,0.3,3.7,0.9c0.9,0.6,1.4,1.5,1.4,2.7v7.4
		c0,0.2,0,0.4,0.1,0.5s0.3,0.2,0.6,0.2c0.1,0,0.2,0,0.3,0s0.2,0,0.4-0.1v1.6c-0.3,0.1-0.6,0.2-0.8,0.2s-0.4,0-0.7,0
		c-0.7,0-1.3-0.3-1.6-0.8c-0.2-0.3-0.3-0.7-0.4-1.2c-0.4,0.6-1.1,1.1-1.9,1.5c-0.8,0.4-1.7,0.6-2.7,0.6c-1.2,0-2.2-0.4-2.9-1.1
		s-1.1-1.6-1.1-2.7c0-1.2,0.4-2.1,1.1-2.8c0.7-0.7,1.7-1.1,2.9-1.2L582.5,439.5z"/>
	<path class="st0" d="M589.2,434.5h2.1v1.8c0.5-0.6,1-1.1,1.4-1.4c0.7-0.5,1.5-0.7,2.4-0.7c1,0,1.8,0.3,2.5,0.8
		c0.4,0.3,0.7,0.7,1,1.3c0.5-0.7,1-1.2,1.7-1.5c0.6-0.3,1.4-0.5,2.2-0.5c1.7,0,2.9,0.6,3.5,1.9c0.3,0.7,0.5,1.6,0.5,2.7v8.5h-2.2
		v-8.9c0-0.9-0.2-1.4-0.6-1.8c-0.4-0.3-0.9-0.5-1.6-0.5c-0.8,0-1.6,0.3-2.2,0.9c-0.6,0.6-0.9,1.5-0.9,2.8v7.5h-2.2V439
		c0-0.9-0.1-1.5-0.3-1.9c-0.3-0.6-0.9-0.9-1.8-0.9c-0.8,0-1.6,0.3-2.2,0.9c-0.7,0.6-1,1.8-1,3.4v6.8h-2.2L589.2,434.5L589.2,434.5z"
		/>
	<path class="st0" d="M609.7,434.5h2.2v12.8h-2.2V434.5z M609.7,429.7h2.2v2.4h-2.2V429.7z"/>
	<path class="st0" d="M616.5,441c0,1.4,0.3,2.5,0.9,3.5c0.6,0.9,1.5,1.4,2.8,1.4c1,0,1.8-0.4,2.5-1.3c0.6-0.9,1-2.1,1-3.7
		s-0.3-2.8-1-3.6c-0.7-0.8-1.5-1.2-2.5-1.2c-1.1,0-2,0.4-2.6,1.2C616.9,438.2,616.5,439.4,616.5,441z M619.8,434.2
		c1,0,1.8,0.2,2.5,0.6c0.4,0.2,0.8,0.7,1.3,1.3v-6.5h2.1v17.7h-1.9v-1.8c-0.5,0.8-1.1,1.4-1.8,1.7c-0.7,0.4-1.5,0.5-2.4,0.5
		c-1.4,0-2.7-0.6-3.7-1.8c-1-1.2-1.6-2.8-1.6-4.8c0-1.9,0.5-3.5,1.4-4.9C616.6,434.9,618,434.2,619.8,434.2z"/>
	<path class="st0" d="M630.5,443.9c0,0.6,0.2,1.1,0.7,1.5s1,0.5,1.6,0.5c0.8,0,1.5-0.2,2.2-0.5c1.2-0.6,1.8-1.5,1.8-2.9v-1.7
		c-0.3,0.2-0.6,0.3-1,0.4s-0.8,0.2-1.2,0.2l-1.3,0.2c-0.8,0.1-1.4,0.3-1.8,0.5C630.8,442.5,630.5,443.1,630.5,443.9z M635.7,439.5
		c0.5-0.1,0.8-0.3,1-0.6c0.1-0.2,0.1-0.5,0.1-0.8c0-0.7-0.3-1.3-0.8-1.6c-0.5-0.3-1.3-0.5-2.2-0.5c-1.1,0-1.9,0.3-2.4,0.9
		c-0.3,0.3-0.4,0.8-0.5,1.5h-2c0-1.6,0.6-2.7,1.5-3.3c1-0.6,2.1-0.9,3.4-0.9c1.5,0,2.7,0.3,3.7,0.9c0.9,0.6,1.4,1.5,1.4,2.7v7.4
		c0,0.2,0,0.4,0.1,0.5s0.3,0.2,0.6,0.2c0.1,0,0.2,0,0.3,0s0.2,0,0.4-0.1v1.6c-0.3,0.1-0.6,0.2-0.8,0.2s-0.4,0-0.7,0
		c-0.7,0-1.3-0.3-1.6-0.8c-0.2-0.3-0.3-0.7-0.4-1.2c-0.4,0.6-1.1,1.1-1.9,1.5c-0.8,0.4-1.7,0.6-2.7,0.6c-1.2,0-2.2-0.4-2.9-1.1
		c-0.8-0.7-1.1-1.6-1.1-2.7c0-1.2,0.4-2.1,1.1-2.8c0.7-0.7,1.7-1.1,2.9-1.2L635.7,439.5z"/>
	<path class="st0" d="M642.5,429.7h2.2v17.6h-2.2V429.7z"/>
</g>
<g>
	<path class="st0" d="M441.2,598.5h2.4V614h8.9v2.1h-11.3V598.5z"/>
	<path class="st0" d="M456.2,612.7c0,0.6,0.2,1.1,0.7,1.5s1,0.5,1.6,0.5c0.8,0,1.5-0.2,2.2-0.5c1.2-0.6,1.8-1.5,1.8-2.9v-1.7
		c-0.3,0.2-0.6,0.3-1,0.4c-0.4,0.1-0.8,0.2-1.2,0.2l-1.3,0.2c-0.8,0.1-1.4,0.3-1.8,0.5C456.6,611.3,456.2,611.9,456.2,612.7z
		 M461.5,608.4c0.5-0.1,0.8-0.3,1-0.6c0.1-0.2,0.1-0.5,0.1-0.8c0-0.7-0.3-1.3-0.8-1.6s-1.3-0.5-2.2-0.5c-1.1,0-1.9,0.3-2.4,0.9
		c-0.3,0.3-0.4,0.8-0.5,1.5h-2c0-1.6,0.6-2.7,1.5-3.3c1-0.6,2.1-0.9,3.4-0.9c1.5,0,2.7,0.3,3.7,0.9c0.9,0.6,1.4,1.5,1.4,2.7v7.4
		c0,0.2,0,0.4,0.1,0.5s0.3,0.2,0.6,0.2c0.1,0,0.2,0,0.3,0c0.1,0,0.2,0,0.4-0.1v1.6c-0.3,0.1-0.6,0.2-0.8,0.2c-0.2,0-0.4,0-0.7,0
		c-0.7,0-1.3-0.3-1.6-0.8c-0.2-0.3-0.3-0.7-0.4-1.2c-0.4,0.6-1.1,1.1-1.9,1.5s-1.7,0.6-2.7,0.6c-1.2,0-2.2-0.4-2.9-1.1
		c-0.8-0.7-1.1-1.6-1.1-2.7c0-1.2,0.4-2.1,1.1-2.8s1.7-1.1,2.9-1.2L461.5,608.4z"/>
	<path class="st0" d="M476.3,603.3h2.4c-0.3,0.8-1,2.7-2,5.6c-0.8,2.2-1.4,4-2,5.4c-1.2,3.3-2.1,5.3-2.6,6s-1.4,1.1-2.6,1.1
		c-0.3,0-0.5,0-0.7,0s-0.4-0.1-0.6-0.1v-2c0.4,0.1,0.6,0.2,0.8,0.2c0.2,0,0.3,0,0.4,0c0.4,0,0.7-0.1,0.9-0.2
		c0.2-0.1,0.3-0.3,0.5-0.5c0-0.1,0.2-0.4,0.4-1c0.2-0.6,0.4-1,0.5-1.3l-4.7-13.2h2.4l3.4,10.5L476.3,603.3z"/>
	<path class="st0" d="M485.9,603c0.9,0,1.8,0.2,2.6,0.6c0.9,0.4,1.5,1,2,1.7c0.4,0.6,0.7,1.4,0.9,2.3c0.1,0.6,0.2,1.5,0.2,2.8h-9.4
		c0,1.3,0.3,2.3,0.9,3.1s1.5,1.2,2.7,1.2c1.1,0,2-0.4,2.7-1.1c0.4-0.4,0.7-0.9,0.8-1.5h2.1c-0.1,0.5-0.2,1-0.6,1.6
		c-0.3,0.6-0.7,1.1-1.1,1.4c-0.7,0.6-1.5,1.1-2.4,1.3c-0.5,0.1-1.1,0.2-1.8,0.2c-1.6,0-3-0.6-4.1-1.7c-1.1-1.2-1.7-2.8-1.7-4.9
		c0-2.1,0.6-3.7,1.7-5C482.6,603.7,484.1,603,485.9,603z M489.3,608.7c-0.1-0.9-0.3-1.7-0.6-2.2c-0.6-1-1.6-1.6-3-1.6
		c-1,0-1.8,0.4-2.5,1.1c-0.7,0.7-1,1.6-1.1,2.7H489.3z"/>
	<path class="st0" d="M494.2,603.3h2.1v2.2c0.2-0.4,0.6-1,1.2-1.6c0.7-0.6,1.4-0.9,2.3-0.9c0,0,0.1,0,0.2,0s0.3,0,0.5,0v2.3
		c-0.1,0-0.2,0-0.4,0c-0.1,0-0.2,0-0.4,0c-1.1,0-1.9,0.3-2.5,1s-0.9,1.5-0.9,2.4v7.4h-2.2L494.2,603.3L494.2,603.3z"/>
	<path class="st0" d="M510,598.5h2.4v17.6H510V598.5z"/>
	<path class="st0" d="M517.7,598.5l5.1,15l5-15h2.7l-6.4,17.6h-2.5l-6.4-17.6H517.7z"/>
</g>
<g>
	<path class="st0" d="M441.8,628h2.4v17.6h-2.4V628z"/>
	<path class="st0" d="M447.8,632.8h2v1.8c0.6-0.8,1.3-1.3,1.9-1.6c0.7-0.3,1.4-0.5,2.3-0.5c1.8,0,3.1,0.6,3.7,1.9
		c0.4,0.7,0.5,1.7,0.5,3v8.2H456v-8.1c0-0.8-0.1-1.4-0.3-1.9c-0.4-0.8-1.1-1.2-2.1-1.2c-0.5,0-0.9,0.1-1.3,0.2
		c-0.6,0.2-1.1,0.5-1.6,1.1c-0.4,0.4-0.6,0.9-0.7,1.3c-0.1,0.5-0.2,1.1-0.2,1.9v6.7h-2V632.8L447.8,632.8z"/>
	<path class="st0" d="M461.8,629.2h2.2v3.6h2.1v1.8H464v8.4c0,0.4,0.2,0.7,0.5,0.9c0.2,0.1,0.4,0.1,0.8,0.1c0.1,0,0.2,0,0.3,0
		c0.1,0,0.3,0,0.4,0v1.7c-0.2,0.1-0.5,0.1-0.8,0.2c-0.3,0-0.6,0-0.9,0c-1,0-1.7-0.3-2-0.8c-0.4-0.5-0.5-1.2-0.5-2v-8.5h-1.7v-1.8
		h1.7V629.2z"/>
	<path class="st0" d="M473.6,632.5c0.9,0,1.8,0.2,2.6,0.6c0.9,0.4,1.5,1,2,1.7c0.4,0.6,0.7,1.4,0.9,2.3c0.1,0.6,0.2,1.5,0.2,2.8
		h-9.5c0,1.3,0.3,2.3,0.9,3.1s1.5,1.2,2.7,1.2c1.1,0,2-0.4,2.7-1.1c0.4-0.4,0.7-0.9,0.8-1.5h2.1c-0.1,0.5-0.2,1-0.6,1.6
		c-0.3,0.6-0.7,1.1-1.1,1.4c-0.7,0.6-1.5,1.1-2.4,1.3c-0.5,0.1-1.1,0.2-1.8,0.2c-1.6,0-3-0.6-4.1-1.7c-1.1-1.2-1.7-2.8-1.7-4.9
		c0-2.1,0.6-3.7,1.7-5C470.3,633.1,471.8,632.5,473.6,632.5z M477,638.2c-0.1-0.9-0.3-1.7-0.6-2.2c-0.6-1-1.6-1.6-3-1.6
		c-1,0-1.8,0.4-2.5,1.1c-0.7,0.7-1,1.6-1.1,2.7H477z"/>
	<path class="st0" d="M481.9,632.8h2.1v2.2c0.2-0.4,0.6-1,1.2-1.6c0.7-0.6,1.4-0.9,2.3-0.9c0,0,0.1,0,0.2,0s0.3,0,0.5,0v2.3
		c-0.1,0-0.2,0-0.4,0c-0.1,0-0.2,0-0.4,0c-1.1,0-1.9,0.3-2.5,1s-0.9,1.5-0.9,2.4v7.4h-2.2L481.9,632.8L481.9,632.8z"/>
	<path class="st0" d="M490.1,632.8h2v1.8c0.6-0.8,1.3-1.3,1.9-1.6c0.7-0.3,1.4-0.5,2.3-0.5c1.8,0,3.1,0.6,3.7,1.9
		c0.4,0.7,0.5,1.7,0.5,3v8.2h-2.2v-8.1c0-0.8-0.1-1.4-0.3-1.9c-0.4-0.8-1.1-1.2-2.1-1.2c-0.5,0-0.9,0.1-1.3,0.2
		c-0.6,0.2-1.1,0.5-1.6,1.1c-0.4,0.4-0.6,0.9-0.7,1.3c-0.1,0.5-0.2,1.1-0.2,1.9v6.7h-2.2v-12.8L490.1,632.8L490.1,632.8z"/>
	<path class="st0" d="M505.4,642.2c0,0.6,0.2,1.1,0.7,1.5s1,0.5,1.6,0.5c0.8,0,1.5-0.2,2.2-0.5c1.2-0.6,1.8-1.5,1.8-2.9v-1.7
		c-0.3,0.2-0.6,0.3-1,0.4c-0.4,0.1-0.8,0.2-1.2,0.2l-1.3,0.2c-0.8,0.1-1.4,0.3-1.8,0.5C505.7,640.8,505.4,641.4,505.4,642.2z
		 M510.6,637.8c0.5-0.1,0.8-0.3,1-0.6c0.1-0.2,0.1-0.5,0.1-0.8c0-0.7-0.3-1.3-0.8-1.6s-1.3-0.5-2.2-0.5c-1.1,0-1.9,0.3-2.4,0.9
		c-0.3,0.3-0.4,0.8-0.5,1.5h-2c0-1.6,0.6-2.7,1.5-3.3c1-0.6,2.1-0.9,3.4-0.9c1.5,0,2.7,0.3,3.7,0.9c0.9,0.6,1.4,1.5,1.4,2.7v7.4
		c0,0.2,0,0.4,0.1,0.5s0.3,0.2,0.6,0.2c0.1,0,0.2,0,0.3,0s0.2,0,0.4-0.1v1.6c-0.3,0.1-0.6,0.2-0.8,0.2s-0.4,0-0.7,0
		c-0.7,0-1.3-0.3-1.6-0.8c-0.2-0.3-0.3-0.7-0.4-1.2c-0.4,0.6-1.1,1.1-1.9,1.5s-1.7,0.6-2.7,0.6c-1.2,0-2.2-0.4-2.9-1.1
		c-0.8-0.7-1.1-1.6-1.1-2.7c0-1.2,0.4-2.1,1.1-2.8s1.7-1.1,2.9-1.2L510.6,637.8z"/>
	<path class="st0" d="M517.4,628h2.2v17.6h-2.2V628z"/>
	<path class="st0" d="M537.6,627.5c1.7,0,3.1,0.3,4.3,1c1.8,0.9,2.8,2.5,3.2,4.8h-2.4c-0.3-1.3-0.9-2.2-1.8-2.8
		c-0.9-0.6-2-0.9-3.4-0.9c-1.6,0-3,0.6-4.1,1.8s-1.7,3-1.7,5.5c0,2.1,0.5,3.8,1.4,5.1s2.4,2,4.5,2c1.6,0,2.9-0.5,4-1.4
		c1-0.9,1.6-2.4,1.6-4.5h-5.5v-2h7.7v9.4h-1.6l-0.6-2.3c-0.8,0.9-1.5,1.5-2.1,1.8c-1,0.6-2.4,0.9-4,0.9c-2.1,0-3.9-0.7-5.4-2
		c-1.6-1.7-2.5-4-2.5-7c0-2.9,0.8-5.3,2.4-7C533.2,628.4,535.1,627.5,537.6,627.5z"/>
	<path class="st0" d="M548.8,632.8h2v2.2c0.2-0.4,0.6-1,1.2-1.6c0.7-0.6,1.4-0.9,2.3-0.9c0,0,0.1,0,0.2,0c0.1,0,0.3,0,0.5,0v2.3
		c-0.1,0-0.2,0-0.4,0c-0.1,0-0.2,0-0.4,0c-1.1,0-1.9,0.3-2.5,1s-0.9,1.5-0.9,2.4v7.4h-2L548.8,632.8L548.8,632.8z"/>
	<path class="st0" d="M558.6,642.2c0,0.6,0.2,1.1,0.7,1.5s1,0.5,1.6,0.5c0.8,0,1.5-0.2,2.2-0.5c1.2-0.6,1.8-1.5,1.8-2.9v-1.7
		c-0.3,0.2-0.6,0.3-1,0.4c-0.4,0.1-0.8,0.2-1.2,0.2l-1.3,0.2c-0.8,0.1-1.4,0.3-1.8,0.5C558.9,640.8,558.6,641.4,558.6,642.2z
		 M563.8,637.8c0.5-0.1,0.8-0.3,1-0.6c0.1-0.2,0.1-0.5,0.1-0.8c0-0.7-0.3-1.3-0.8-1.6s-1.3-0.5-2.2-0.5c-1.1,0-1.9,0.3-2.4,0.9
		c-0.3,0.3-0.4,0.8-0.5,1.5h-2c0-1.6,0.6-2.7,1.5-3.3c1-0.6,2.1-0.9,3.4-0.9c1.5,0,2.7,0.3,3.7,0.9c0.9,0.6,1.4,1.5,1.4,2.7v7.4
		c0,0.2,0,0.4,0.1,0.5s0.3,0.2,0.6,0.2c0.1,0,0.2,0,0.3,0s0.2,0,0.4-0.1v1.6c-0.3,0.1-0.6,0.2-0.8,0.2s-0.4,0-0.7,0
		c-0.7,0-1.3-0.3-1.6-0.8c-0.2-0.3-0.3-0.7-0.4-1.2c-0.4,0.6-1.1,1.1-1.9,1.5c-0.8,0.4-1.7,0.6-2.7,0.6c-1.2,0-2.2-0.4-2.9-1.1
		s-1.1-1.6-1.1-2.7c0-1.2,0.4-2.1,1.1-2.8c0.7-0.7,1.7-1.1,2.9-1.2L563.8,637.8z"/>
	<path class="st0" d="M570.6,632.8h2.1v1.8c0.6-0.8,1.3-1.3,1.9-1.6c0.7-0.3,1.4-0.5,2.3-0.5c1.8,0,3.1,0.6,3.7,1.9
		c0.4,0.7,0.5,1.7,0.5,3v8.2h-2.3v-8.1c0-0.8-0.1-1.4-0.3-1.9c-0.4-0.8-1.1-1.2-2.1-1.2c-0.5,0-0.9,0.1-1.3,0.2
		c-0.6,0.2-1.1,0.5-1.6,1.1c-0.4,0.4-0.6,0.9-0.7,1.3c-0.1,0.5-0.2,1.1-0.2,1.9v6.7h-2.2v-12.8L570.6,632.8L570.6,632.8z"/>
	<path class="st0" d="M586.4,632.8v8.5c0,0.7,0.1,1.2,0.3,1.6c0.4,0.8,1.1,1.2,2.1,1.2c1.5,0,2.5-0.7,3.1-2c0.3-0.7,0.4-1.7,0.4-3
		v-6.3h2.2v12.8h-2v-1.9c-0.3,0.5-0.6,0.9-1,1.2c-0.8,0.7-1.8,1-3,1c-1.8,0-3.1-0.6-3.7-1.8c-0.4-0.7-0.5-1.5-0.5-2.6v-8.7H586.4z"
		/>
	<path class="st0" d="M597.9,628h2.2v17.6h-2.2V628z"/>
	<path class="st0" d="M605,642.2c0,0.6,0.2,1.1,0.7,1.5s1,0.5,1.6,0.5c0.8,0,1.5-0.2,2.2-0.5c1.2-0.6,1.8-1.5,1.8-2.9v-1.7
		c-0.3,0.2-0.6,0.3-1,0.4c-0.4,0.1-0.8,0.2-1.2,0.2l-1.3,0.2c-0.8,0.1-1.4,0.3-1.8,0.5C605.3,640.8,605,641.4,605,642.2z
		 M610.2,637.8c0.5-0.1,0.8-0.3,1-0.6c0.1-0.2,0.1-0.5,0.1-0.8c0-0.7-0.3-1.3-0.8-1.6s-1.3-0.5-2.2-0.5c-1.1,0-1.9,0.3-2.4,0.9
		c-0.3,0.3-0.4,0.8-0.5,1.5h-2c0-1.6,0.6-2.7,1.5-3.3c1-0.6,2.1-0.9,3.4-0.9c1.5,0,2.7,0.3,3.7,0.9c0.9,0.6,1.4,1.5,1.4,2.7v7.4
		c0,0.2,0,0.4,0.1,0.5s0.3,0.2,0.6,0.2c0.1,0,0.2,0,0.3,0s0.2,0,0.4-0.1v1.6c-0.3,0.1-0.6,0.2-0.8,0.2s-0.4,0-0.7,0
		c-0.7,0-1.3-0.3-1.6-0.8c-0.2-0.3-0.3-0.7-0.4-1.2c-0.4,0.6-1.1,1.1-1.9,1.5c-0.8,0.4-1.7,0.6-2.7,0.6c-1.2,0-2.2-0.4-2.9-1.1
		c-0.8-0.7-1.1-1.6-1.1-2.7c0-1.2,0.4-2.1,1.1-2.8c0.7-0.7,1.7-1.1,2.9-1.2L610.2,637.8z"/>
	<path class="st0" d="M617.1,632.8h2.1v2.2c0.2-0.4,0.6-1,1.2-1.6c0.7-0.6,1.4-0.9,2.3-0.9c0,0,0.1,0,0.2,0c0.1,0,0.3,0,0.5,0v2.3
		c-0.1,0-0.2,0-0.4,0c-0.1,0-0.2,0-0.4,0c-1.1,0-1.9,0.3-2.5,1s-0.9,1.5-0.9,2.4v7.4H617L617.1,632.8L617.1,632.8L617.1,632.8z"/>
</g>
<g>
	<path class="st0" d="M440.9,765.7h2.4v15.5h8.9v2.1h-11.3V765.7z"/>
	<path class="st0" d="M455.9,779.9c0,0.6,0.2,1.1,0.7,1.5s1,0.5,1.6,0.5c0.8,0,1.5-0.2,2.2-0.5c1.2-0.6,1.8-1.5,1.8-2.9v-1.7
		c-0.3,0.2-0.6,0.3-1,0.4c-0.4,0.1-0.8,0.2-1.2,0.2l-1.3,0.2c-0.8,0.1-1.4,0.3-1.8,0.5C456.3,778.5,455.9,779.1,455.9,779.9z
		 M461.2,775.5c0.5-0.1,0.8-0.3,1-0.6c0.1-0.2,0.1-0.5,0.1-0.8c0-0.7-0.3-1.3-0.8-1.6s-1.3-0.5-2.2-0.5c-1.1,0-1.9,0.3-2.4,0.9
		c-0.3,0.3-0.4,0.8-0.5,1.5h-2c0-1.6,0.6-2.7,1.5-3.3c1-0.6,2.1-0.9,3.4-0.9c1.5,0,2.7,0.3,3.7,0.9c0.9,0.6,1.4,1.5,1.4,2.7v7.4
		c0,0.2,0,0.4,0.1,0.5s0.3,0.2,0.6,0.2c0.1,0,0.2,0,0.3,0c0.1,0,0.2,0,0.4-0.1v1.6c-0.3,0.1-0.6,0.2-0.8,0.2c-0.2,0-0.4,0-0.7,0
		c-0.7,0-1.3-0.3-1.6-0.8c-0.2-0.3-0.3-0.7-0.4-1.2c-0.4,0.6-1.1,1.1-1.9,1.5s-1.7,0.6-2.7,0.6c-1.2,0-2.2-0.4-2.9-1.1
		c-0.8-0.7-1.1-1.6-1.1-2.7c0-1.2,0.4-2.1,1.1-2.8s1.7-1.1,2.9-1.2L461.2,775.5z"/>
	<path class="st0" d="M475.9,770.5h2.4c-0.3,0.8-1,2.7-2,5.6c-0.8,2.2-1.4,4-2,5.4c-1.2,3.3-2.1,5.3-2.6,6s-1.4,1.1-2.6,1.1
		c-0.3,0-0.5,0-0.7,0s-0.4-0.1-0.6-0.1v-2c0.4,0.1,0.6,0.2,0.8,0.2c0.2,0,0.3,0,0.4,0c0.4,0,0.7-0.1,0.9-0.2
		c0.2-0.1,0.3-0.3,0.5-0.5c0-0.1,0.2-0.4,0.4-1c0.2-0.6,0.4-1,0.5-1.3l-4.7-13.2h2.4l3.4,10.5L475.9,770.5z"/>
	<path class="st0" d="M485.6,770.2c0.9,0,1.8,0.2,2.6,0.6c0.9,0.4,1.5,1,2,1.7c0.4,0.6,0.7,1.4,0.9,2.3c0.1,0.6,0.2,1.5,0.2,2.8
		h-9.5c0,1.3,0.3,2.3,0.9,3.1s1.5,1.2,2.7,1.2c1.1,0,2-0.4,2.7-1.1c0.4-0.4,0.7-0.9,0.8-1.5h2.1c-0.1,0.5-0.2,1-0.6,1.6
		c-0.3,0.6-0.7,1.1-1.1,1.4c-0.7,0.6-1.5,1.1-2.4,1.3c-0.5,0.1-1.1,0.2-1.8,0.2c-1.6,0-3-0.6-4.1-1.7c-1.1-1.2-1.7-2.8-1.7-4.9
		c0-2.1,0.6-3.7,1.7-5C482.3,770.8,483.7,770.2,485.6,770.2z M489,775.9c-0.1-0.9-0.3-1.7-0.6-2.2c-0.6-1-1.6-1.6-3-1.6
		c-1,0-1.8,0.4-2.5,1.1c-0.7,0.7-1,1.6-1.1,2.7H489z"/>
	<path class="st0" d="M493.9,770.5h2.1v2.2c0.2-0.4,0.6-1,1.2-1.6c0.7-0.6,1.4-0.9,2.3-0.9c0,0,0.1,0,0.2,0s0.3,0,0.5,0v2.3
		c-0.1,0-0.2,0-0.4,0c-0.1,0-0.2,0-0.4,0c-1.1,0-1.9,0.3-2.5,1s-0.9,1.5-0.9,2.4v7.4h-2.2L493.9,770.5L493.9,770.5z"/>
	<path class="st0" d="M510.5,765.7l5.1,15l5-15h2.7l-6.4,17.6h-2.5l-6.4-17.6H510.5z"/>
</g>
<g>
	<path class="st0" d="M441.4,795.2h2.4v17.6h-2.4V795.2z"/>
	<path class="st0" d="M447.4,799.9h2v1.8c0.6-0.8,1.3-1.3,1.9-1.6c0.7-0.3,1.4-0.5,2.3-0.5c1.8,0,3.1,0.6,3.7,1.9
		c0.4,0.7,0.5,1.7,0.5,3v8.2h-2.2v-8.1c0-0.8-0.1-1.4-0.3-1.9c-0.4-0.8-1.1-1.2-2.1-1.2c-0.5,0-0.9,0.1-1.3,0.2
		c-0.6,0.2-1.1,0.5-1.6,1.1c-0.4,0.4-0.6,0.9-0.7,1.3c-0.1,0.5-0.2,1.1-0.2,1.9v6.7h-2.2v-12.8L447.4,799.9L447.4,799.9z"/>
	<path class="st0" d="M461.5,796.3h2.2v3.6h2.1v1.8h-2.1v8.4c0,0.4,0.2,0.7,0.5,0.9c0.2,0.1,0.4,0.1,0.8,0.1c0.1,0,0.2,0,0.3,0
		c0.1,0,0.3,0,0.4,0v1.7c-0.2,0.1-0.5,0.1-0.8,0.2c-0.3,0-0.6,0-0.9,0c-1,0-1.7-0.3-2-0.8c-0.4-0.5-0.5-1.2-0.5-2v-8.5h-1.7v-1.8
		h1.7V796.3z"/>
	<path class="st0" d="M473.3,799.6c0.9,0,1.8,0.2,2.6,0.6c0.9,0.4,1.5,1,2,1.7c0.4,0.6,0.7,1.4,0.9,2.3c0.1,0.6,0.2,1.5,0.2,2.8
		h-9.4c0,1.3,0.3,2.3,0.9,3.1s1.5,1.2,2.7,1.2c1.1,0,2-0.4,2.7-1.1c0.4-0.4,0.7-0.9,0.8-1.5h2.1c-0.1,0.5-0.2,1-0.6,1.6
		c-0.3,0.6-0.7,1.1-1.1,1.4c-0.7,0.6-1.5,1.1-2.4,1.3c-0.5,0.1-1.1,0.2-1.8,0.2c-1.6,0-3-0.6-4.1-1.7c-1.1-1.2-1.7-2.8-1.7-4.9
		c0-2.1,0.6-3.7,1.7-5C470,800.3,471.5,799.6,473.3,799.6z M476.7,805.3c-0.1-0.9-0.3-1.7-0.6-2.2c-0.6-1-1.6-1.6-3-1.6
		c-1,0-1.8,0.4-2.5,1.1c-0.7,0.7-1,1.6-1.1,2.7H476.7z"/>
	<path class="st0" d="M481.6,799.9h2.1v2.2c0.2-0.4,0.6-1,1.2-1.6c0.7-0.6,1.4-0.9,2.3-0.9c0,0,0.1,0,0.2,0s0.3,0,0.5,0v2.3
		c-0.1,0-0.2,0-0.4,0c-0.1,0-0.2,0-0.4,0c-1.1,0-1.9,0.3-2.5,1s-0.9,1.5-0.9,2.4v7.4h-2.2L481.6,799.9L481.6,799.9z"/>
	<path class="st0" d="M489.7,799.9h2v1.8c0.6-0.8,1.3-1.3,1.9-1.6c0.7-0.3,1.4-0.5,2.3-0.5c1.8,0,3.1,0.6,3.7,1.9
		c0.4,0.7,0.5,1.7,0.5,3v8.2h-2.2v-8.1c0-0.8-0.1-1.4-0.3-1.9c-0.4-0.8-1.1-1.2-2.1-1.2c-0.5,0-0.9,0.1-1.3,0.2
		c-0.6,0.2-1.1,0.5-1.6,1.1c-0.4,0.4-0.6,0.9-0.7,1.3c-0.1,0.5-0.2,1.1-0.2,1.9v6.7h-2.2v-12.8L489.7,799.9L489.7,799.9z"/>
	<path class="st0" d="M505.1,809.3c0,0.6,0.2,1.1,0.7,1.5s1,0.5,1.6,0.5c0.8,0,1.5-0.2,2.2-0.5c1.2-0.6,1.8-1.5,1.8-2.9v-1.7
		c-0.3,0.2-0.6,0.3-1,0.4c-0.4,0.1-0.8,0.2-1.2,0.2l-1.3,0.2c-0.8,0.1-1.4,0.3-1.8,0.5C505.4,807.9,505.1,808.5,505.1,809.3z
		 M510.3,805c0.5-0.1,0.8-0.3,1-0.6c0.1-0.2,0.1-0.5,0.1-0.8c0-0.7-0.3-1.3-0.8-1.6s-1.3-0.5-2.2-0.5c-1.1,0-1.9,0.3-2.4,0.9
		c-0.3,0.3-0.4,0.8-0.5,1.5h-2c0-1.6,0.6-2.7,1.5-3.3c1-0.6,2.1-0.9,3.4-0.9c1.5,0,2.7,0.3,3.7,0.9c0.9,0.6,1.4,1.5,1.4,2.7v7.4
		c0,0.2,0,0.4,0.1,0.5s0.3,0.2,0.6,0.2c0.1,0,0.2,0,0.3,0s0.2,0,0.4-0.1v1.6c-0.3,0.1-0.6,0.2-0.8,0.2s-0.4,0-0.7,0
		c-0.7,0-1.3-0.3-1.6-0.8c-0.2-0.3-0.3-0.7-0.4-1.2c-0.4,0.6-1.1,1.1-1.9,1.5s-1.7,0.6-2.7,0.6c-1.2,0-2.2-0.4-2.9-1.1
		c-0.8-0.7-1.1-1.6-1.1-2.7c0-1.2,0.4-2.1,1.1-2.8s1.7-1.1,2.9-1.2L510.3,805z"/>
	<path class="st0" d="M517.1,795.2h2.2v17.6h-2.2V795.2z"/>
	<path class="st0" d="M529.8,795.2h7.9c1.6,0,2.8,0.4,3.8,1.3c1,0.9,1.4,2.1,1.4,3.7c0,1.4-0.4,2.6-1.3,3.6c-0.9,1-2.2,1.5-3.9,1.5
		h-5.5v7.4h-2.4V795.2z M540.6,800.2c0-1.3-0.5-2.2-1.4-2.6c-0.5-0.2-1.3-0.4-2.2-0.4h-4.7v6.1h4.7c1.1,0,1.9-0.2,2.6-0.7
		C540.3,802.2,540.6,801.4,540.6,800.2z"/>
	<path class="st0" d="M553.7,799.9h2.4c-0.3,0.8-1,2.7-2,5.6c-0.8,2.2-1.4,4-2,5.4c-1.2,3.3-2.1,5.3-2.6,6s-1.4,1.1-2.6,1.1
		c-0.3,0-0.5,0-0.7,0s-0.4-0.1-0.6-0.1v-2c0.4,0.1,0.6,0.2,0.8,0.2s0.3,0,0.4,0c0.4,0,0.7-0.1,0.9-0.2c0.2-0.1,0.3-0.3,0.5-0.5
		c0-0.1,0.2-0.4,0.4-1s0.4-1,0.5-1.3l-4.7-13.2h2.4l3.4,10.5L553.7,799.9z"/>
	<path class="st0" d="M558,799.9h2.1v2.2c0.2-0.4,0.6-1,1.2-1.6c0.7-0.6,1.4-0.9,2.3-0.9c0,0,0.1,0,0.2,0c0.1,0,0.3,0,0.5,0v2.3
		c-0.1,0-0.2,0-0.4,0c-0.1,0-0.2,0-0.4,0c-1.1,0-1.9,0.3-2.5,1s-0.9,1.5-0.9,2.4v7.4h-2.2v-12.8L558,799.9L558,799.9z"/>
	<path class="st0" d="M567.8,809.3c0,0.6,0.2,1.1,0.7,1.5s1,0.5,1.6,0.5c0.8,0,1.5-0.2,2.2-0.5c1.2-0.6,1.8-1.5,1.8-2.9v-1.7
		c-0.3,0.2-0.6,0.3-1,0.4c-0.4,0.1-0.8,0.2-1.2,0.2l-1.3,0.2c-0.8,0.1-1.4,0.3-1.8,0.5C568.1,807.9,567.8,808.5,567.8,809.3z
		 M573,805c0.5-0.1,0.8-0.3,1-0.6c0.1-0.2,0.1-0.5,0.1-0.8c0-0.7-0.3-1.3-0.8-1.6s-1.3-0.5-2.2-0.5c-1.1,0-1.9,0.3-2.4,0.9
		c-0.3,0.3-0.4,0.8-0.5,1.5h-2c0-1.6,0.6-2.7,1.5-3.3c1-0.6,2.1-0.9,3.4-0.9c1.5,0,2.7,0.3,3.7,0.9c0.9,0.6,1.4,1.5,1.4,2.7v7.4
		c0,0.2,0,0.4,0.1,0.5s0.3,0.2,0.6,0.2c0.1,0,0.2,0,0.3,0s0.2,0,0.4-0.1v1.6c-0.3,0.1-0.6,0.2-0.8,0.2s-0.4,0-0.7,0
		c-0.7,0-1.3-0.3-1.6-0.8c-0.2-0.3-0.3-0.7-0.4-1.2c-0.4,0.6-1.1,1.1-1.9,1.5c-0.8,0.4-1.7,0.6-2.7,0.6c-1.2,0-2.2-0.4-2.9-1.1
		s-1.1-1.6-1.1-2.7c0-1.2,0.4-2.1,1.1-2.8c0.7-0.7,1.7-1.1,2.9-1.2L573,805z"/>
	<path class="st0" d="M579.8,799.9h2.1v1.8c0.5-0.6,1-1.1,1.4-1.4c0.7-0.5,1.5-0.7,2.4-0.7c1,0,1.8,0.3,2.5,0.8
		c0.4,0.3,0.7,0.7,1,1.3c0.5-0.7,1-1.2,1.7-1.5c0.6-0.3,1.4-0.5,2.2-0.5c1.7,0,2.9,0.6,3.5,1.9c0.3,0.7,0.5,1.6,0.5,2.7v8.5h-2.3
		v-8.9c0-0.9-0.2-1.4-0.6-1.8c-0.4-0.3-0.9-0.5-1.6-0.5c-0.8,0-1.6,0.3-2.2,0.9c-0.6,0.6-0.9,1.5-0.9,2.8v7.5h-2.2v-8.4
		c0-0.9-0.1-1.5-0.3-1.9c-0.3-0.6-0.9-0.9-1.8-0.9c-0.8,0-1.6,0.3-2.2,0.9c-0.7,0.6-1,1.8-1,3.4v6.8h-2.2L579.8,799.9L579.8,799.9z"
		/>
	<path class="st0" d="M600.3,800h2.2v12.8h-2.2V800z M600.3,795.2h2.2v2.4h-2.2V795.2z"/>
	<path class="st0" d="M607.1,806.5c0,1.4,0.3,2.5,0.9,3.5c0.6,0.9,1.5,1.4,2.8,1.4c1,0,1.8-0.4,2.5-1.3c0.6-0.9,1-2.1,1-3.7
		c0-1.6-0.3-2.8-1-3.6s-1.5-1.2-2.5-1.2c-1.1,0-2,0.4-2.6,1.2C607.4,803.7,607.1,804.9,607.1,806.5z M610.3,799.7
		c1,0,1.8,0.2,2.5,0.6c0.4,0.2,0.8,0.7,1.3,1.3v-6.5h2.1v17.7h-1.9V811c-0.5,0.8-1.1,1.4-1.8,1.7c-0.7,0.4-1.5,0.5-2.4,0.5
		c-1.4,0-2.7-0.6-3.7-1.8s-1.6-2.8-1.6-4.8c0-1.9,0.5-3.5,1.4-4.9C607.2,800.4,608.6,799.7,610.3,799.7z"/>
	<path class="st0" d="M621,809.3c0,0.6,0.2,1.1,0.7,1.5s1,0.5,1.6,0.5c0.8,0,1.5-0.2,2.2-0.5c1.2-0.6,1.8-1.5,1.8-2.9v-1.7
		c-0.3,0.2-0.6,0.3-1,0.4c-0.4,0.1-0.8,0.2-1.2,0.2l-1.3,0.2c-0.8,0.1-1.4,0.3-1.8,0.5C621.4,807.9,621,808.5,621,809.3z M626.3,805
		c0.5-0.1,0.8-0.3,1-0.6c0.1-0.2,0.1-0.5,0.1-0.8c0-0.7-0.3-1.3-0.8-1.6s-1.3-0.5-2.2-0.5c-1.1,0-1.9,0.3-2.4,0.9
		c-0.3,0.3-0.4,0.8-0.5,1.5h-2c0-1.6,0.6-2.7,1.5-3.3c1-0.6,2.1-0.9,3.4-0.9c1.5,0,2.7,0.3,3.7,0.9c0.9,0.6,1.4,1.5,1.4,2.7v7.4
		c0,0.2,0,0.4,0.1,0.5s0.3,0.2,0.6,0.2c0.1,0,0.2,0,0.3,0s0.2,0,0.4-0.1v1.6c-0.3,0.1-0.6,0.2-0.8,0.2s-0.4,0-0.7,0
		c-0.7,0-1.3-0.3-1.6-0.8c-0.2-0.3-0.3-0.7-0.4-1.2c-0.4,0.6-1.1,1.1-1.9,1.5c-0.8,0.4-1.7,0.6-2.7,0.6c-1.2,0-2.2-0.4-2.9-1.1
		c-0.8-0.7-1.1-1.6-1.1-2.7c0-1.2,0.4-2.1,1.1-2.8c0.7-0.7,1.7-1.1,2.9-1.2L626.3,805z"/>
	<path class="st0" d="M633.1,795.2h2.2v17.6h-2.2V795.2z"/>
</g>
<g>
	<path class="st0" d="M441.8,937.6h2.4v15.5h8.9v2.1h-11.3V937.6z"/>
	<path class="st0" d="M456.9,951.7c0,0.6,0.2,1.1,0.7,1.5s1,0.5,1.6,0.5c0.8,0,1.5-0.2,2.2-0.5c1.2-0.6,1.8-1.5,1.8-2.9v-1.7
		c-0.3,0.2-0.6,0.3-1,0.4c-0.4,0.1-0.8,0.2-1.2,0.2l-1.3,0.2c-0.8,0.1-1.4,0.3-1.8,0.5C457.2,950.3,456.9,950.9,456.9,951.7z
		 M462.1,947.4c0.5-0.1,0.8-0.3,1-0.6c0.1-0.2,0.1-0.5,0.1-0.8c0-0.7-0.3-1.3-0.8-1.6s-1.3-0.5-2.2-0.5c-1.1,0-1.9,0.3-2.4,0.9
		c-0.3,0.3-0.4,0.8-0.5,1.5h-2c0-1.6,0.6-2.7,1.5-3.3c1-0.6,2.1-0.9,3.4-0.9c1.5,0,2.7,0.3,3.7,0.9c0.9,0.6,1.4,1.5,1.4,2.7v7.4
		c0,0.2,0,0.4,0.1,0.5s0.3,0.2,0.6,0.2c0.1,0,0.2,0,0.3,0c0.1,0,0.2,0,0.4-0.1v1.6c-0.3,0.1-0.6,0.2-0.8,0.2c-0.2,0-0.4,0-0.7,0
		c-0.7,0-1.3-0.3-1.6-0.8c-0.2-0.3-0.3-0.7-0.4-1.2c-0.4,0.6-1.1,1.1-1.9,1.5s-1.7,0.6-2.7,0.6c-1.2,0-2.2-0.4-2.9-1.1
		c-0.8-0.7-1.1-1.6-1.1-2.7c0-1.2,0.4-2.1,1.1-2.8s1.7-1.1,2.9-1.2L462.1,947.4z"/>
	<path class="st0" d="M476.9,942.3h2.4c-0.3,0.8-1,2.7-2,5.6c-0.8,2.2-1.4,4-2,5.4c-1.2,3.3-2.1,5.3-2.6,6s-1.4,1.1-2.6,1.1
		c-0.3,0-0.5,0-0.7,0s-0.4-0.1-0.6-0.1v-2c0.4,0.1,0.6,0.2,0.8,0.2c0.2,0,0.3,0,0.4,0c0.4,0,0.7-0.1,0.9-0.2
		c0.2-0.1,0.3-0.3,0.5-0.5c0-0.1,0.2-0.4,0.4-1c0.2-0.6,0.4-1,0.5-1.3l-4.7-13.2h2.4l3.4,10.5L476.9,942.3z"/>
	<path class="st0" d="M486.5,942c0.9,0,1.8,0.2,2.6,0.6c0.9,0.4,1.5,1,2,1.7c0.4,0.6,0.7,1.4,0.9,2.3c0.1,0.6,0.2,1.5,0.2,2.8h-9.4
		c0,1.3,0.3,2.3,0.9,3.1s1.5,1.2,2.7,1.2c1.1,0,2-0.4,2.7-1.1c0.4-0.4,0.7-0.9,0.8-1.5h2.1c-0.1,0.5-0.2,1-0.6,1.6
		c-0.3,0.6-0.7,1.1-1.1,1.4c-0.7,0.6-1.5,1.1-2.4,1.3c-0.5,0.1-1.1,0.2-1.8,0.2c-1.6,0-3-0.6-4.1-1.7c-1.1-1.2-1.7-2.8-1.7-4.9
		c0-2.1,0.6-3.7,1.7-5C483.2,942.7,484.7,942,486.5,942z M489.9,947.7c-0.1-0.9-0.3-1.7-0.6-2.2c-0.6-1-1.6-1.6-3-1.6
		c-1,0-1.8,0.4-2.5,1.1c-0.7,0.7-1,1.6-1.1,2.7H489.9z"/>
	<path class="st0" d="M494.9,942.3h2.1v2.2c0.2-0.4,0.6-1,1.2-1.6c0.7-0.6,1.4-0.9,2.3-0.9c0,0,0.1,0,0.2,0s0.3,0,0.5,0v2.3
		c-0.1,0-0.2,0-0.4,0c-0.1,0-0.2,0-0.4,0c-1.1,0-1.9,0.3-2.5,1s-0.9,1.5-0.9,2.4v7.4h-2.2L494.9,942.3L494.9,942.3z"/>
	<path class="st0" d="M511.5,937.6l5.1,15l5-15h2.7l-6.4,17.6h-2.5l-6.4-17.6H511.5z"/>
	<path class="st0" d="M527,937.6h2.4v17.6H527V937.6z"/>
</g>
<g>
	<path class="st0" d="M441.8,967h3.4l5.1,14.9l5-14.9h3.4v17.6h-2.3v-10.4c0-0.4,0-1,0-1.8s0-1.7,0-2.7l-5,14.9H449l-5.1-14.9v0.5
		c0,0.4,0,1.1,0,2s0,1.5,0,1.9v10.4h-2.1V967z"/>
	<path class="st0" d="M464.2,971.8v8.5c0,0.7,0.1,1.2,0.3,1.6c0.4,0.8,1.1,1.2,2.1,1.2c1.5,0,2.5-0.7,3.1-2c0.3-0.7,0.4-1.7,0.4-3
		v-6.3h2.2v12.8h-2v-1.9c-0.3,0.5-0.6,0.9-1,1.2c-0.8,0.7-1.8,1-3,1c-1.8,0-3.1-0.6-3.7-1.8c-0.4-0.7-0.5-1.5-0.5-2.6v-8.7H464.2z"
		/>
	<path class="st0" d="M475.7,967h2.2v17.6h-2.2V967z"/>
	<path class="st0" d="M481.5,968.2h2.2v3.6h2v1.8h-2v8.4c0,0.4,0.2,0.7,0.5,0.9c0.2,0.1,0.4,0.1,0.8,0.1c0.1,0,0.2,0,0.3,0
		c0.1,0,0.3,0,0.4,0v1.7c-0.2,0.1-0.5,0.1-0.8,0.2c-0.3,0-0.6,0-0.9,0c-1,0-1.7-0.3-2.1-0.8s-0.5-1.2-0.5-2v-8.5h-1.6v-1.8h1.7
		V968.2z"/>
	<path class="st0" d="M487.9,971.8h2.2v12.8h-2.2V971.8z M487.9,967h2.2v2.4h-2.2V967z"/>
	<path class="st0" d="M493.9,969.8c0-0.9,0.2-1.6,0.5-2c0.5-0.7,1.5-1.1,2.9-1.1c0.1,0,0.3,0,0.4,0s0.3,0,0.5,0v2
		c-0.2,0-0.4,0-0.5,0s-0.2,0-0.3,0c-0.7,0-1,0.2-1.2,0.5c-0.1,0.3-0.2,1.2-0.2,2.6h2.1v1.7h-2.2v11.1h-2.1v-11.1H492v-1.7h1.8v-2
		H493.9z"/>
	<path class="st0" d="M505.3,983.2c1.4,0,2.4-0.5,2.9-1.6s0.8-2.3,0.8-3.6c0-1.2-0.2-2.2-0.6-2.9c-0.6-1.2-1.7-1.8-3.1-1.8
		c-1.3,0-2.3,0.5-2.9,1.5s-0.9,2.2-0.9,3.6c0,1.4,0.3,2.5,0.9,3.4C503.1,982.8,504,983.2,505.3,983.2z M505.4,971.4
		c1.7,0,3.1,0.6,4.2,1.7c1.1,1.1,1.7,2.7,1.7,4.9c0,2.1-0.5,3.8-1.5,5.1c-1,1.4-2.6,2-4.7,2c-1.8,0-3.2-0.6-4.2-1.8
		s-1.6-2.8-1.6-4.8c0-2.2,0.5-3.9,1.6-5.2C502.1,972.1,503.5,971.4,505.4,971.4z"/>
	<path class="st0" d="M513.9,971.8h2v2.2c0.2-0.4,0.6-1,1.2-1.6c0.6-0.6,1.4-0.9,2.3-0.9c0,0,0.1,0,0.2,0c0.1,0,0.3,0,0.5,0v2.3
		c-0.1,0-0.2,0-0.4,0c-0.1,0-0.2,0-0.4,0c-1.1,0-1.9,0.3-2.5,1s-0.9,1.5-0.9,2.4v7.4h-2.2v-12.8L513.9,971.8L513.9,971.8z"/>
	<path class="st0" d="M522,971.8h2.1v1.8c0.5-0.6,1-1.1,1.4-1.4c0.7-0.5,1.5-0.7,2.4-0.7c1,0,1.8,0.3,2.5,0.8c0.4,0.3,0.7,0.7,1,1.3
		c0.5-0.7,1-1.2,1.7-1.5c0.6-0.3,1.4-0.5,2.2-0.5c1.7,0,2.9,0.6,3.5,1.9c0.3,0.7,0.5,1.6,0.5,2.7v8.5h-2.2v-8.9
		c0-0.9-0.2-1.4-0.6-1.8c-0.4-0.3-0.9-0.5-1.6-0.5c-0.8,0-1.6,0.3-2.2,0.9c-0.6,0.6-0.9,1.5-0.9,2.8v7.5h-2.2v-8.4
		c0-0.9-0.1-1.5-0.3-1.9c-0.3-0.6-0.9-0.9-1.8-0.9c-0.8,0-1.6,0.3-2.2,0.9c-0.7,0.6-1,1.8-1,3.4v6.8h-2.2v-12.8L522,971.8L522,971.8
		z"/>
	<path class="st0" d="M546.5,967h1.8l-5.6,17.6h-1.8L546.5,967z"/>
	<path class="st0" d="M549.8,967h7.9c1.6,0,2.8,0.4,3.8,1.3c1,0.9,1.4,2.1,1.4,3.7c0,1.4-0.4,2.6-1.3,3.6c-0.9,1-2.2,1.5-3.9,1.5
		h-5.5v7.4h-2.4V967z M560.6,972.1c0-1.3-0.5-2.2-1.4-2.6c-0.5-0.2-1.3-0.4-2.2-0.4h-4.7v6.1h4.7c1.1,0,1.9-0.2,2.6-0.7
		C560.2,974,560.6,973.2,560.6,972.1z"/>
	<path class="st0" d="M570.8,983.2c1.4,0,2.4-0.5,2.9-1.6s0.8-2.3,0.8-3.6c0-1.2-0.2-2.2-0.6-2.9c-0.6-1.2-1.7-1.8-3.1-1.8
		c-1.3,0-2.3,0.5-2.9,1.5c-0.6,1-0.9,2.2-0.9,3.6c0,1.4,0.3,2.5,0.9,3.4C568.5,982.8,569.5,983.2,570.8,983.2z M570.9,971.4
		c1.7,0,3.1,0.6,4.2,1.7c1.1,1.1,1.7,2.7,1.7,4.9c0,2.1-0.5,3.8-1.5,5.1c-1,1.4-2.6,2-4.7,2c-1.8,0-3.2-0.6-4.2-1.8
		s-1.6-2.8-1.6-4.8c0-2.2,0.5-3.9,1.6-5.2C567.6,972.1,569,971.4,570.9,971.4z"/>
	<path class="st0" d="M579.4,967h2.2v17.6h-2.2V967z"/>
	<path class="st0" d="M592.8,971.8h2.4c-0.3,0.8-1,2.7-2,5.6c-0.8,2.2-1.4,4-2,5.4c-1.2,3.3-2.1,5.3-2.6,6s-1.4,1.1-2.6,1.1
		c-0.3,0-0.5,0-0.7,0s-0.4-0.1-0.6-0.1v-2c0.4,0.1,0.6,0.2,0.8,0.2s0.3,0,0.4,0c0.4,0,0.7-0.1,0.9-0.2c0.2-0.1,0.3-0.3,0.5-0.5
		c0-0.1,0.2-0.4,0.4-1s0.4-1,0.5-1.3l-4.7-13.2h2.4l3.4,10.5L592.8,971.8z"/>
	<path class="st0" d="M597.1,971.8h2.1v1.8c0.5-0.6,1-1.1,1.4-1.4c0.7-0.5,1.5-0.7,2.4-0.7c1,0,1.8,0.3,2.5,0.8
		c0.4,0.3,0.7,0.7,1,1.3c0.5-0.7,1-1.2,1.7-1.5c0.6-0.3,1.4-0.5,2.2-0.5c1.7,0,2.9,0.6,3.5,1.9c0.3,0.7,0.5,1.6,0.5,2.7v8.5h-2.2
		v-8.9c0-0.9-0.2-1.4-0.6-1.8c-0.4-0.3-0.9-0.5-1.6-0.5c-0.8,0-1.6,0.3-2.2,0.9c-0.6,0.6-0.9,1.5-0.9,2.8v7.5h-2.2v-8.4
		c0-0.9-0.1-1.5-0.3-1.9c-0.3-0.6-0.9-0.9-1.8-0.9c-0.8,0-1.6,0.3-2.2,0.9c-0.7,0.6-1,1.8-1,3.4v6.8h-2.2L597.1,971.8L597.1,971.8
		L597.1,971.8z"/>
	<path class="st0" d="M622.6,983.2c1.4,0,2.4-0.5,2.9-1.6s0.8-2.3,0.8-3.6c0-1.2-0.2-2.2-0.6-2.9c-0.6-1.2-1.7-1.8-3.1-1.8
		c-1.3,0-2.3,0.5-2.9,1.5c-0.6,1-0.9,2.2-0.9,3.6c0,1.4,0.3,2.5,0.9,3.4C620.4,982.8,621.3,983.2,622.6,983.2z M622.7,971.4
		c1.7,0,3.1,0.6,4.2,1.7c1.1,1.1,1.7,2.7,1.7,4.9c0,2.1-0.5,3.8-1.5,5.1c-1,1.4-2.6,2-4.7,2c-1.8,0-3.2-0.6-4.2-1.8
		s-1.6-2.8-1.6-4.8c0-2.2,0.5-3.9,1.6-5.2C619.4,972.1,620.9,971.4,622.7,971.4z"/>
	<path class="st0" d="M631.2,971.8h2v2.2c0.2-0.4,0.6-1,1.2-1.6c0.7-0.6,1.4-0.9,2.3-0.9c0,0,0.1,0,0.2,0c0.1,0,0.3,0,0.5,0v2.3
		c-0.1,0-0.2,0-0.4,0c-0.1,0-0.2,0-0.4,0c-1.1,0-1.9,0.3-2.5,1s-0.9,1.5-0.9,2.4v7.4H631v-12.8L631.2,971.8L631.2,971.8z"/>
	<path class="st0" d="M644.8,983.2c1,0,1.8-0.4,2.5-1.3c0.7-0.8,1-2.1,1-3.8c0-1-0.1-1.9-0.4-2.6c-0.6-1.4-1.6-2.1-3.1-2.1
		s-2.5,0.7-3.1,2.2c-0.3,0.8-0.4,1.8-0.4,3c0,1,0.1,1.8,0.4,2.5C642.3,982.5,643.3,983.2,644.8,983.2z M639.2,971.8h2.1v1.7
		c0.4-0.6,0.9-1,1.4-1.4c0.7-0.5,1.6-0.7,2.6-0.7c1.5,0,2.7,0.6,3.7,1.7c1,1.1,1.5,2.7,1.5,4.8c0,2.8-0.7,4.8-2.2,6
		c-0.9,0.8-2,1.1-3.2,1.1c-1,0-1.8-0.2-2.4-0.6c-0.4-0.2-0.8-0.7-1.3-1.2v6.6h-2.2L639.2,971.8L639.2,971.8z"/>
	<path class="st0" d="M653,967h2.2v6.6c0.5-0.6,1-1.1,1.4-1.4c0.7-0.5,1.6-0.7,2.6-0.7c1.9,0,3.1,0.7,3.8,2c0.4,0.7,0.5,1.7,0.5,3
		v8.2h-2.2v-8.1c0-0.9-0.1-1.6-0.4-2.1c-0.4-0.7-1.1-1.1-2.2-1.1c-0.9,0-1.7,0.3-2.4,0.9c-0.7,0.6-1.1,1.8-1.1,3.5v6.8H653V967
		L653,967z"/>
	<path class="st0" d="M666.7,971.8h2.2v12.8h-2.2V971.8z M666.7,967h2.2v2.4h-2.2V967z"/>
	<path class="st0" d="M677.1,971.4c1.4,0,2.6,0.4,3.5,1.1c0.9,0.7,1.5,1.9,1.6,3.6h-2.1c-0.1-0.8-0.4-1.4-0.9-2
		c-0.5-0.5-1.2-0.8-2.2-0.8c-1.4,0-2.4,0.7-3,2c-0.4,0.9-0.6,1.9-0.6,3.2s0.3,2.4,0.8,3.3c0.5,0.9,1.4,1.3,2.6,1.3
		c0.9,0,1.6-0.3,2.1-0.8s0.9-1.3,1.1-2.2h2.1c-0.2,1.7-0.8,2.9-1.8,3.7s-2.2,1.2-3.7,1.2c-1.7,0-3-0.6-4-1.8s-1.5-2.8-1.5-4.6
		c0-2.3,0.5-4,1.6-5.3C674,972,675.4,971.4,677.1,971.4z"/>
</g>
<path class="st1" d="M410.6,1035.9H8.4V6h402.3L410.6,1035.9L410.6,1035.9z"/>
<g>
	<g>
		<g>
			<g>
				<g>
					<g>
						<g>
							<g>
								<defs>
									<rect id="SVGID_1_" x="-386.5" y="-19.4" width="1078.5" height="1080"/>
								</defs>
								<clipPath id="SVGID_00000016761137174767463410000006513265260994505907_">
									<use xlink:href="#SVGID_1_"  style="overflow:visible;"/>
								</clipPath>
								<g style="clip-path:url(#SVGID_00000016761137174767463410000006513265260994505907_);">
									<g>
										<path class="st1" d="M8.8,43h5.7"/>
										<path class="st3" d="M22.1,43h378.5"/>
										<path class="st1" d="M404.5,43h5.7"/>
										<path class="st1" d="M9.3,883.9H15"/>
										<path class="st3" d="M22.6,883.9h378.5"/>
										<path class="st1" d="M405,883.9h5.7"/>
										<path class="st1" d="M8.8,559.5h5.7"/>
										<path class="st3" d="M22.1,559.5h378.5"/>
										<path class="st1" d="M404.5,559.5h5.7"/>
										<path class="st1" d="M9.3,703.5H15"/>
										<path class="st3" d="M22.6,703.5h378.5"/>
										<path class="st1" d="M405,703.5h5.7"/>
										<path class="st1" d="M8.4,292.7h5.7"/>
										<path class="st3" d="M21.7,292.7h378.5"/>
										<path class="st1" d="M404,292.7h5.7"/>
										<path class="st1" d="M8.4,159.6h5.7"/>
										<path class="st3" d="M21.7,159.6h378.5"/>
										<path class="st1" d="M404,159.6h5.7"/>
									</g>
								</g>
							</g>
						</g>
					</g>
				</g>
			</g>
		</g>
	</g>
</g>
<path id="r043" class="st4" d="M409.7,159.6H8.8V43h400.9L409.7,159.6L409.7,159.6z"/>
<path id="r044" class="st4" d="M410,559.5H9.1V159.9H410L410,559.5L410,559.5z"/>
<path id="r045" class="st4" d="M409.2,703.5H8.3v-144h400.9L409.2,703.5L409.2,703.5z"/>
<path id="r046" class="st4" d="M410,883.9H9.1V703.5H410L410,883.9L410,883.9z"/>
<path id="r047" class="st4" d="M409.2,1035.9H8.3V884h400.9L409.2,1035.9L409.2,1035.9z"/>
<path id="r051NeuN" class="st5" d="M100,759c18.3-6,37.3,6.3,44,22c8.5,20-2.4,47-23,52c-19.8,4.8-40.9-12.5-44-33
	C74.6,784.3,82.5,764.7,100,759z"/>
<path id="r051Neuropil" class="st5" d="M35,705.3c20.3-7.1,41.3,7.5,48.7,26c9.4,23.6-2.6,55.5-25.5,61.4c-22,5.7-45.3-14.8-48.7-39
	C6.9,735.2,15.7,712.1,35,705.3z"/>
</svg>
